<?xml version="1.0" encoding="UTF-8" standalone="no"?>
<!-- Created with Inkscape (http://www.inkscape.org/) -->

<svg
   xmlns:dc="http://purl.org/dc/elements/1.1/"
   xmlns:cc="http://creativecommons.org/ns#"
   xmlns:rdf="http://www.w3.org/1999/02/22-rdf-syntax-ns#"
   xmlns:svg="http://www.w3.org/2000/svg"
   xmlns="http://www.w3.org/2000/svg"
   xmlns:sodipodi="http://sodipodi.sourceforge.net/DTD/sodipodi-0.dtd"
   xmlns:inkscape="http://www.inkscape.org/namespaces/inkscape"
   width="300"
   height="90"
   id="svg7478"
   version="1.1"
   inkscape:version="0.48.4 r9939"
   sodipodi:docname="brush_04S.svg">
  <defs
     id="defs7480" />
  <sodipodi:namedview
     id="base"
     pagecolor="#ffffff"
     bordercolor="#666666"
     borderopacity="1.0"
     inkscape:pageopacity="0.0"
     inkscape:pageshadow="2"
     inkscape:zoom="2.8"
     inkscape:cx="186.68813"
     inkscape:cy="98.701105"
     inkscape:document-units="px"
     inkscape:current-layer="layer1"
     showgrid="false"
     inkscape:window-width="1920"
     inkscape:window-height="1023"
     inkscape:window-x="0"
     inkscape:window-y="0"
     inkscape:window-maximized="1" />
  <metadata
     id="metadata7483">
    <rdf:RDF>
      <cc:Work
         rdf:about="">
        <dc:format>image/svg+xml</dc:format>
        <dc:type
           rdf:resource="http://purl.org/dc/dcmitype/StillImage" />
        <dc:title></dc:title>
      </cc:Work>
    </rdf:RDF>
  </metadata>
  <g
     inkscape:label="Layer 1"
     inkscape:groupmode="layer"
     id="layer1"
     transform="translate(0,-962.36218)">
    <path
       style="fill:#231f20;fill-opacity:1;fill-rule:nonzero;stroke:none"
       d="m 149.46875,978.79968 c -11.4893,3.70848 -34.07601,9.30127 -40.23976,6.14814 1.94965,-3.04282 16.77072,0.55627 15.8103,-2.35663 22.71974,-4.3142 -16.82674,-2.16402 -22.76012,-0.44601 -30.24052,5.25884 -63.082165,7.03399 -89.168608,24.86942 0.838179,0.3977 29.541237,-12.35076 42.632157,-13.94325 16.224748,-0.64834 30.827284,-9.9484 47.747321,-6.43314 11.30606,4.16037 37.3641,-3.18703 38.43901,-0.56525 -24.81868,3.71021 19.78525,-0.37119 26.89146,3.24194 10.61311,1.82321 7.49811,2.65819 5.62196,2.60288 10.54314,2.2405 8.93823,2.27925 -0.63331,1.59022 10.93797,-0.10005 16.02231,9.0418 2.17048,4.40794 -8.90351,-2.43962 -34.00447,-3.60344 -33.89569,-1.77572 15.77212,1.67913 30.84636,-1.1046 46.31986,6.06398 3.19954,1.5327 24.01068,10.7544 13.26798,4.3868 2.4682,-0.6682 15.93826,0.9819 15.93075,4.9671 -18.20122,-2.8434 13.64885,3.4541 0.60175,3.6641 24.39186,5.4395 47.1716,21.1676 71.45302,23.4545 17.37973,-15.6681 -5.05795,-28.1397 -19.38928,-31.9211 -28.39376,-13.71702 -59.77221,-19.22995 -90.65152,-23.90591 -8.13173,-2.43414 -33.69586,2.28322 -29.7611,-2.36104 18.46947,0.62441 12.85821,-1.91818 -0.38666,-1.68897 z m -1.09375,2.6875 -0.40625,0 0.40625,0 z m 72.3125,34.84372 -0.65373,-0.038 0.65373,0.038 z m -0.6875,-0.062 -0.34375,-0.031 0.34375,0.031 z m -24.46875,-9.8125 c -1.23697,-1.6926 -3.76264,0.1478 0,0 z m -2.34375,-0.75 c -3.65657,-1.6404 -2.11389,1.1407 0,0 z m -3.03125,-0.4687 -0.5182,-0.1056 0.5182,0.1056 z m -3.1875,-3.375 -0.25091,0 0.25091,0 z m -10.90625,-3.15627 c -2.38863,-1.88453 -0.94317,1.70197 0,0 z m -46.09375,-11.875 c -1.91344,0 -1.38404,0 0,0 z m 5.25,-0.0937 -0.47366,0.0306 0.47366,-0.0306 z m -47.34375,-0.4375 -0.3125,0 0.3125,0 z M 9.71875,1009.9559 c -2.565464,1.2954 -3.3589709,1.696 0,0 z m 148.1875,-28.96872 1.05435,0.11437 -1.05435,-0.11437 z m -4.46875,0.3125 c 2.28453,0.35696 1.86061,0.29072 0,0 z m 4.28125,0.4375 c -0.86752,1.40497 1.42983,-0.58723 0,0 z m 10.84375,0.59375 c 7.21133,-0.12325 -1.23891,1.61857 0,0 z m -2.125,0.0312 1.05945,0.21649 -1.05945,-0.21649 z m -23.375,0.3125 c 1.51062,0.3872 -1.00373,1.12888 0,0 z m 2.125,0.15625 c 0.81285,1.45114 -3.46104,-0.93545 0,0 z m -3.34375,0.1875 c 1.17608,-0.13176 -1.22551,1.00222 0,0 z m -2.28125,0.125 c 1.05004,-1.03776 0.24101,1.19391 0,0 z m 26.3125,0.125 c 2.01679,-0.46734 -0.89563,1.45719 0,0 z m -31.15625,0.15625 -0.30527,0.1412 0.30527,-0.1412 z m -0.59375,0.15625 -0.5625,0 0.5625,0 z m -30.625,-0.125 c 8.65638,2.38611 -10.228017,1.05281 0,0 z m 30.71875,1.0625 0.91428,0.15785 -0.91428,-0.15785 z M 130,985.08093 c 0.91799,0.47722 -1.1533,0.32076 0,0 z m 18.28125,0.46875 c 1.80794,0.87753 -4.37518,-0.21449 0,0 z m 8.1875,0.1875 c 8.66831,-0.22116 -3.7017,1.27685 0,0 z M 160,986.17468 c 9.86891,-1.29511 -1.91316,3.60433 0,0 z m -73.1875,0.3125 c -0.718285,2.8987 10.925243,-1.70051 0,0 z m 38.0625,0.0312 c 6.51836,0.55445 -2.90759,1.39181 0,0 z m -30.40625,0.0937 c -5.262127,0.94583 4.367163,-0.15895 0,0 z m 45.53125,0 c 4.27245,-0.47413 1.2151,2.18107 0,0 z m 1.96875,0 c 2.2023,0.0856 1.55886,0.0606 0,0 z m 8.28125,0.21875 1.09387,0.12501 -1.09387,-0.12501 z m 53.53125,0 0.66043,0.11007 -0.66043,-0.11007 z m 3.1875,0.125 0.4482,0.12991 -0.4482,-0.12991 z m -96.78125,0.84375 c 1.36371,1.73852 5.54372,-0.79721 0,0 z m -25.65625,0.0312 c -2.530125,1.80646 6.356594,-0.16781 0,0 z m 8.09375,0.0312 c -4.218115,-0.94676 0.159957,1.53396 0,0 z m 15.53125,0.0625 c -8.376703,0.81859 -22.424801,3.45458 -6.29018,1.68917 -0.82026,-0.1908 12.97561,0.29312 6.29018,-1.68917 z m 24.65625,0.21875 c 0.43723,0.98248 2.149,-0.90354 0,0 z m -44.78125,0.3125 0.564415,0.31043 -0.564415,-0.31043 z m 15.84375,0.125 c 4.62585,-0.28111 -3.920578,1.18444 0,0 z m 15.03125,0.21875 0.78659,0.13692 -0.78659,-0.13692 z m 25.0625,0.28125 c -19.47026,2.37027 13.30118,4.79948 10.91844,1.93223 -3.82577,-0.56553 -7.0331,-1.8098 -10.91844,-1.93223 z m -31.53125,0.28125 -0.68054,0.15225 0.68054,-0.15225 z m -1.3125,0.1875 -0.96075,0 0.96075,0 z m -32.75,0 -0.837092,0.33348 0.837092,-0.33348 z m 11.375,0.125 c -1.124402,0.58593 1.569218,-0.32542 0,0 z m 21.21875,0.625 c 1.75947,0.0581 1.52698,0.0504 0,0 z m 14.1875,0 c -4.56072,-0.95295 1.10945,1.45908 0,0 z m -1.53125,0.125 0.1875,0.0625 -0.1875,-0.0625 z m -42.6875,0.15625 c -4.178957,1.13464 3.633517,0.0415 0,0 z m 68.125,0.0625 0.82926,0.10366 -0.82926,-0.10366 z m -28.9375,0.125 -3.39393,0.20578 3.39393,-0.20578 z m -3.9375,0.21875 c -7.87852,-1.4524 -29.484972,4.58088 -10.42124,2.61719 10.40295,-0.0179 20.73588,-2.25686 4.37044,-1.15499 -8.395,0.18948 4.15538,-1.45727 6.0508,-1.4622 z m -40.21875,-0.125 c -2.74663,0.55887 2.860553,0.46102 0,0 z m 51.8125,0.78125 c -7.77736,1.21978 11.70792,-0.725 0,0 z m -52.21875,0.0625 c -0.477719,1.23253 2.383058,-0.96963 0,0 z m -1.625,0.125 c -1.569258,0.27686 1.817877,0.11104 0,0 z m 2.40625,0 0.359132,0.0144 -0.359132,-0.0144 z m 10.15625,0 c -3.383814,0.4986 -4.241909,0.62504 0,0 z m 9.75,0.125 -0.218664,0.18888 0.218664,-0.18888 z m -24.09375,0.3125 c -5.874676,-0.65332 -17.674693,4.75759 -4.259285,1.6147 -8.117142,2.89117 13.362816,0.7896 4.259285,-1.6147 z m 9.625,0.125 -1.052083,0.34475 1.052083,-0.34475 z m 19.6875,0 c -1.588756,1.29672 -2.981602,-0.3413 0,0 z m 47.96875,0.3125 c -32.26016,1.17039 19.9779,1.5799 0,0 z m -53.0625,0.0312 c -1.42577,0.28725 1.327691,0.30259 0,0 z m 73,0 0.67573,0.16217 -0.67573,-0.16217 z m -43,0.1875 -1.02625,0.14445 1.02625,-0.14445 z m -45.21875,0.125 c -0.444611,1.37296 1.793431,-0.42934 0,0 z m 0.75,0.4375 0.4375,0 -0.4375,0 z m 28.71875,0.3125 c -2.87835,0.67602 2.66337,2.69127 0,0 z m -6.25,0.125 c -6.851768,-0.85459 0.30383,1.29937 0,0 z m 38.375,0.3125 0.72145,0.13111 -0.72145,-0.13111 z m -36.75,0.344 c -1.52357,0.14849 1.24487,0.2505 0,0 z m 31.0625,0 c 2.55572,1.61277 4.64877,-1.01256 0,0 z m -32.03125,0.125 c -5.306577,-1.07298 -3.21312,2.23474 0,0 z m -12.4375,0.0312 c -8.258307,-0.16402 2.651117,1.35225 0,0 z m 32,0.15625 c 2.21834,0.49805 1.73031,0.38848 0,0 z m 8.71875,0.125 c -1.74039,0.61737 2.1209,-0.23044 0,0 z m -77.96875,0.3125 c -10.685093,0.0317 -3.714789,3.44373 0,0 z m 22.9375,0 c -1.533552,1.11233 3.976581,-1.07735 0,0 z m 32.28125,0.0312 -0.34515,0.10635 0.34515,-0.10635 z m -0.625,0.0937 -0.62502,0 0.62502,0 z m -40.4375,0 c -1.415191,0.62097 1.773562,-0.24266 0,0 z m 52,0 c -4.3723,0.45982 4.26428,-0.16772 0,0 z m -28.5625,0.1875 -0.591371,0.1352 0.591371,-0.1352 z m 3.625,0.0625 c -7.179377,0.0835 1.428019,0.77931 0,0 z m -1.84375,0.375 -1.009982,0.10919 1.009982,-0.10919 z m -34.96875,0 c -8.05526,-0.15824 -0.574064,2.95776 0,0 z m 2.90625,0 c 0.768409,1.33429 1.676163,-1.18037 0,0 z m 19.6875,0.34375 c -3.541524,-0.49215 -1.060291,2.8228 0,0 z m -3.0625,1.0625 c -2.290198,-2.24747 -2.905446,1.61577 0,0 z m 35.375,-0.9375 c 0.54561,1.17497 4.31261,-1.10722 0,0 z M 153,996.86218 c 3.99576,-1.54237 1.28972,1.5754 0,0 z m -101.75,0.59375 -0.224961,0.14094 0.224961,-0.14094 z m 54.34375,0 c -1.06502,1.44542 1.99725,0.19557 0,0 z m -39,0.0312 0.444971,0.009 -0.444971,-0.009 z m 63.78125,0 c -0.16766,2.87447 6.0497,-2.4383 0,0 z m 4.28125,0 -1.00342,0.18177 1.00342,-0.18177 z m -80.71875,0.125 c -5.825031,0.55281 -5.145956,1.74797 0,0 z m 17.90625,0 1.12173,0.0494 -1.12173,-0.0494 z m 71.09375,0 0.6466,0.13948 -0.6466,-0.13948 z m -100.03125,0.125 c -5.573994,-0.99353 -3.118584,2.80977 0,0 z m 150.15625,0 c 2.78624,-1.21102 0.72674,1.17292 0,0 z m -32.5,0.125 c -4.23755,-0.29174 0.74701,1.32028 0,0 z m -111.21875,0.0625 -0.09375,0.28125 0.09375,-0.28125 z m 21.09375,0 -1.194852,0.25975 1.194852,-0.25975 z M 69,998.23718 68.15625,998.39343 69,998.23718 z m -9.75,0 c -6.370988,1.50736 4.550958,0.56283 0,0 z m 12.90625,0 0.769928,0.18753 -0.769928,-0.18753 z m -15.125,0.25 0.171392,0.0425 -0.171392,-0.0425 z m -0.09375,0.0312 -0.592786,0 -9.64e-4,0 0,0.3125 0.59375,-0.3125 z m 93.625,0 c -1.20557,0.2417 1.07559,0.36492 0,0 z m 0.90625,0 c -0.34273,0.83154 1.46127,-0.42263 0,0 z m 41.75,0.1875 0.60746,0.10101 -0.60746,-0.10101 z m -149.125,0.0937 c -9.131525,0.95769 -23.598349,8.29512 -6.469144,3.19622 l 3.368662,-1.094 3.100482,-2.10222 z m -18.125,6.15622 c -4.731834,0.5811 -1.533226,2.4093 0,0 z m 127.6875,-6.12497 c 1.73633,0.16394 1.54135,0.14553 0,0 z M 65,999.01843 c -5.614247,-0.47654 -1.096832,1.30457 0,0 z m 91.1875,0 c 2.14273,0.17492 1.36223,0.11121 0,0 z m -103.15625,0.4375 c -10.173927,1.05507 -0.245715,3.94507 0,0 z M 50,1000.0809 c -3.636227,-0.8273 -0.569289,1.1101 0,0 z m 6.8125,0.125 c -4.516123,-0.4594 0.816107,1.7027 0,0 z m 117.65625,0 c 4.14138,1.595 2.04635,5.3853 9.70669,2.7548 -2.71015,-2.2515 -6.31397,-2.8255 -9.70669,-2.7548 z m -14.3125,0.3125 c 2.09415,0.3557 1.23618,0.21 0,0 z m -105.90625,0.1563 -0.183886,0.083 0.183886,-0.083 z m 99.40625,0 0.82926,0.1037 -0.82926,-0.1037 z m 43.78125,0.1562 c 8.21225,0.057 -2.61968,2.7096 0,0 z m -166.3125,0.1563 c -7.120834,2.0247 -20.946369,11.1625 -5.730628,2.9946 -0.555508,-0.5749 8.798678,-1.7094 5.730628,-2.9946 z m 15.28125,0.031 c -4.912394,0.1978 -18.855616,6.3556 -5.123278,2.3352 -13.211286,2.4937 12.325574,0.5214 5.123278,-2.3352 z m -1.15625,2.2188 -0.15625,0.031 0.15625,-0.031 z m -13.28125,2.1562 -0.32742,0.3019 0.32742,-0.3019 z m -0.3125,0.3438 c -9.225952,0.8633 -8.029516,4.9979 0,0 z m 124.71875,-4.625 c 2.85935,0.2535 3.98019,0.3529 0,0 z m -130.59375,0.1875 c -6.373841,4.3733 -5.924736,1.0447 0,0 z m 59,0 c -1.398425,0.4531 1.844247,-0.2088 0,0 z m 123.375,0 c 9.40119,0.2573 3.74553,4.9597 0,0 z m -38.96875,0.125 c 2.51976,1.5595 3.58895,-0.6004 0,0 z m 44.53125,0 c 2.49951,0.601 5.71594,1.3743 0,0 z m -62.5625,0.125 c -1.53316,1.1275 3.1802,-0.3521 0,0 z m 48.5625,0.2187 0.6875,0.094 -0.6875,-0.094 z m -46.28125,0.094 0.84319,0.2032 -0.84319,-0.2032 z m 47.59375,0 c 2.82373,-0.1665 1.26976,1.7265 0,0 z m -132.5625,0.1875 0.156986,0.072 -0.156986,-0.072 z m 88.34375,0.125 c 10.67881,2.4034 21.69427,2.2557 4.45239,0.374 l -4.45239,-0.374 z m -113.34375,0.4687 c 0.61556,0.9992 -2.12855,-0.3085 0,0 z m 9.8125,0.1563 c -2.960114,-0.4926 0.34207,1.2417 0,0 z m -7.4375,0.031 -0.381428,0.1295 0.381428,-0.1295 z m 135.125,0.125 1.11804,0.1201 -1.11804,-0.1201 z m 22.625,0 c 4.21142,-0.9851 0.71547,2.4915 0,0 z m 16.8125,0.125 0.84111,0.2036 -0.84111,-0.2036 z m -9.9375,0.5625 c 14.17439,2.1434 -0.0606,7.922 0,0 z m -161.53125,0.1563 c -3.1422,0.3906 -2.914864,0.3624 0,0 z m 137.71875,0.5625 c 2.07739,0.5203 1.29284,0.3238 0,0 z M 17.875,1004.487 c -0.367841,2.5199 -4.017789,-0.877 0,0 z m 25.65625,0 c -7.126926,0.2528 2.312494,1.2284 0,0 z m 134.5,0.4375 c 1.474,1.9058 5.67731,-1.1032 0,0 z m 11.1875,0.031 0.2583,0.1802 -0.2583,-0.1802 z m 22.96875,0.2813 0.75568,0.2605 -0.75568,-0.2605 z m -172.375,0.3125 c -6.369708,-0.5232 0.143252,3.0961 0,0 z m 142.6875,0.125 c 8.36194,3.278 44.17447,10.5872 19.3082,4.1676 -6.40267,-1.5402 -12.86358,-2.8192 -19.3082,-4.1676 z m -137.09375,0.1875 0.05617,0.077 -0.05617,-0.077 z m 161,0.25 c 0.17634,1.7959 2.43914,-0.2729 0,0 z M 36,1006.6122 c -1.979174,-0.051 0.740796,0.7878 0,0 z m -12.3125,0.031 c -4.713368,1.0066 2.760823,0.7312 0,0 z m 185,0.125 0.5625,0.125 -0.5625,-0.125 z m -186.59375,0.75 c -5.511644,0.2541 -1.536876,2.1082 0,0 z m 191.1875,0.4375 0.65435,0.1909 -0.65435,-0.1909 z m -186.75,0.2188 c -5.469145,0.228 -1.279682,3.3872 0,0 z m -11.375,0.9687 -0.65625,0.3438 0.65625,-0.3438 z m 6.28125,0.1875 -0.268086,0.144 0.268086,-0.144 z m -1.90625,0.8125 -0.61325,0.3134 0.61325,-0.3134 z m -1.84375,0.75 c -1.904259,1.0444 -1.271432,0.6974 0,0 z m 209.34375,2.8438 c 3.07257,0.6681 2.95733,0.643 0,0 z"
       id="path3753"
       inkscape:connector-curvature="0" />
  </g>
</svg>
