<?xml version="1.0" encoding="UTF-8" standalone="no"?>
<!-- Created with Inkscape (http://www.inkscape.org/) -->

<svg
   xmlns:dc="http://purl.org/dc/elements/1.1/"
   xmlns:cc="http://creativecommons.org/ns#"
   xmlns:rdf="http://www.w3.org/1999/02/22-rdf-syntax-ns#"
   xmlns:svg="http://www.w3.org/2000/svg"
   xmlns="http://www.w3.org/2000/svg"
   xmlns:sodipodi="http://sodipodi.sourceforge.net/DTD/sodipodi-0.dtd"
   xmlns:inkscape="http://www.inkscape.org/namespaces/inkscape"
   width="300"
   height="90"
   id="svg7478"
   version="1.1"
   inkscape:version="0.48.4 r9939"
   sodipodi:docname="brush_01S.svg">
  <defs
     id="defs7480" />
  <sodipodi:namedview
     id="base"
     pagecolor="#ffffff"
     bordercolor="#666666"
     borderopacity="1.0"
     inkscape:pageopacity="0.0"
     inkscape:pageshadow="2"
     inkscape:zoom="2.8"
     inkscape:cx="186.68813"
     inkscape:cy="98.701105"
     inkscape:document-units="px"
     inkscape:current-layer="layer1"
     showgrid="false"
     inkscape:window-width="1920"
     inkscape:window-height="1023"
     inkscape:window-x="0"
     inkscape:window-y="0"
     inkscape:window-maximized="1" />
  <metadata
     id="metadata7483">
    <rdf:RDF>
      <cc:Work
         rdf:about="">
        <dc:format>image/svg+xml</dc:format>
        <dc:type
           rdf:resource="http://purl.org/dc/dcmitype/StillImage" />
        <dc:title></dc:title>
      </cc:Work>
    </rdf:RDF>
  </metadata>
  <g
     inkscape:label="Layer 1"
     inkscape:groupmode="layer"
     id="layer1"
     transform="translate(0,-962.36218)">
    <path
       style="fill:#231f20;fill-opacity:1;fill-rule:nonzero;stroke:none"
       d="m 134.71875,976.89343 c -12.36663,0.13995 -24.6102,2.07853 -36.822801,3.84344 5.477051,1.40012 13.062821,-1.64608 17.354151,0.43447 -11.96627,-0.29871 -25.712586,4.31412 -36.048705,2.98804 -4.235775,0.0987 -8.20247,6.38219 -6.803641,6.15191 -4.529951,0.90884 -9.53678,4.91296 -1.671451,2.99322 -1.065129,7.23979 -10.519459,3.1394 -9.644392,-0.0814 -3.384936,0.59459 -4.800921,3.52289 -0.262281,1.50717 -2.886315,1.28041 -2.011752,6.0618 -1.403804,5.6965 4.148597,-3.71059 17.662003,-2.85603 9.408054,3.8784 -5.538009,3.7189 -7.475191,-2.4711 -5.379809,-2.3172 -6.938282,3.3497 -14.731083,11.0763 -23.922974,7.7862 -2.813638,-4.8143 -3.705349,-13.72345 -11.003131,-6.3007 -7.25366,3.5403 -12.059056,8.2152 -16.058451,15.5631 10.22335,-3.4147 -11.2565039,10.9213 1.90025,6.7987 6.336973,-1.3456 5.657144,-0.5674 1.404456,3.0209 0.264324,6.1271 12.259638,-3.5811 15.819733,-5.8648 4.411112,-5.5016 -12.349847,1.1541 -1.908362,-3.2374 13.405273,-5.6428 27.393388,-9.7473 41.450416,-13.4086 4.317208,3.0268 5.497635,3.3321 8.45685,-1.1159 9.126727,0.4674 17.747239,-2.7138 28.212082,-2.5131 5.74858,4.5311 12.50202,3.9001 20.56156,5.3511 2.31851,1.7436 7.14979,1.0014 0.62497,2.6566 -10.19164,1.8325 17.58238,2.5073 7.05479,-1.1509 5.63104,0.3356 -3.12894,-4.2357 4.90108,-2.9407 2.73802,-0.6555 12.79641,0.7549 5.57207,2.659 12.902,-3.1687 26.02085,1.5869 38.82302,3.1104 13.50339,4.7621 27.90048,5.1285 41.57446,9.2037 15.80101,4.1345 31.36564,9.3324 47.51525,12.0054 10.53397,-3.5731 5.28448,-17.5216 11.72709,-24.5068 1.01423,-13.95597 -17.72698,-13.04065 -27.11953,-16.624 -32.28861,-9.45111 -65.74443,-17.3939 -99.63453,-14.91559 -8.22883,0.0276 -16.4693,-0.004 -24.67642,-0.67118 z m -10,34.12497 c -0.68765,-3.6468 -3.824,1.2514 0,0 z m -10.90625,-3.9062 c -1.52546,-0.4049 -0.34003,0.965 0,0 z m 10.59375,-27.09377 c 5.16517,1.37977 -1.61965,2.00116 0,0 z m -29.9375,0.1875 c -4.609098,1.40879 3.418824,1.40743 0,0 z m 26.65625,0 c 1.09186,0.88964 -1.92664,0.18053 0,0 z m -31.90625,0.78125 c -3.9723,-1.94689 -3.791543,3.15778 0,0 z m 39.6875,0.53125 c 0.66357,1.13877 -1.98602,-0.46282 0,0 z m -48.5625,0.34375 c -4.890424,-0.64895 -15.145394,3.14868 -3.919466,1.6402 0.64603,-0.21907 6.281588,-0.31302 3.919466,-1.6402 z m 36.71875,0.40625 c 1.25912,0.94309 -1.74938,0.21568 0,0 z m 0.5625,0 c 1.09569,-0.48143 0.24538,1.3805 0,0 z m -6.0625,0.125 c 4.43949,0.53065 -2.93405,1.66021 0,0 z m -9.46875,0.78125 c 3.55849,1.36505 -4.242024,0.58865 0,0 z m -7.3125,1.125 -0.72272,0.0691 0.72272,-0.0691 z m -26.46875,0.625 c -4.507845,-0.17244 0.709265,1.10541 0,0 z m 38.59375,0.34375 c 4.49403,-2.11144 0.23322,1.80218 0,0 z m -44.125,0.0625 c -4.552968,0.53323 -21.843014,7.3402 -8.669546,3.54033 2.956024,-1.00771 5.863488,-2.16676 8.669546,-3.54033 z m 32,0.46875 c 2.857989,-0.51233 -0.971165,2.01041 0,0 z m -9.09375,1.40625 c 4.617262,-1.8109 -1.148149,1.62468 0,0 z m -2.375,0.21875 0.201296,1.56052 -0.201296,-1.56052 z m -0.625,0.1875 c 0.04747,1.88514 -1.885129,-0.72061 0,0 z M 94,989.08093 c 2.597241,-1.71866 1.002648,2.47765 0,0 z m 20.59375,0.40625 c 2.09008,0.79903 -1.85736,0.90911 0,0 z m -4.5625,0.15625 c -5.22363,3.17807 -8.07068,0.272 0,0 z m 3.21875,0.0312 c -0.63494,2.3679 -2.85956,-1.05464 0,0 z m -28.9375,0.25 c 1.817084,1.55792 -4.147938,-0.10275 0,0 z m -4.09375,0.59375 c 1.328375,-0.32489 -1.087673,1.07179 0,0 z m -1.6875,0.1875 c 2.844913,0.72538 -3.198195,1.46765 0,0 z m 19.0625,0.1875 c 1.666342,3.48961 -17.976316,1.09695 -4.732731,0.35196 1.569991,-0.20064 3.150808,-0.31063 4.732731,-0.35196 z M 63.25,990.95593 c -3.862529,-0.46588 -2.701337,3.23314 0,0 z M 55,991.36218 c -1.697938,-0.78387 -0.240599,0.90774 0,0 z m -12.1875,0.1875 c -7.841095,2.01006 -6.781498,5.26255 0,0 z m 65.46875,1.0625 c 4.63594,2.84567 -7.01352,-0.79009 0,0 z m -24.40625,0.0625 c 1.494876,1.52223 -2.884053,-0.23169 0,0 z m -27.125,0.0937 c -5.379617,1.04828 -9.563766,4.47934 -1.77553,1.47103 0.188057,-0.0366 4.386755,-1.00852 1.77553,-1.47103 z m 21.53125,0.8125 c 1.096776,3.11247 -3.442991,-0.84975 0,0 z m 18.375,0.21875 c 4.30141,1.77426 21.90223,1.08686 8.62851,3.24413 -3.05405,0.56434 -17.961706,3.12234 -8.62851,-3.24413 z m 26.21875,0.40625 c 8.38857,-1.43103 3.3175,4.08526 -1.87273,1.58722 -7.2567,-0.9885 -1.74449,-2.09976 1.87273,-1.58722 z m -49.75,0.875 c -0.871314,2.06522 -3.576738,-0.79918 0,0 z m -41.375,0.1875 c -9.024535,1.32269 -3.942725,6.21132 0,0 z m 21.65625,0.59375 c -5.043798,0.21672 -14.544917,5.25457 -5.113476,4.18337 -2.399743,1.3817 -4.582912,3.2463 0.04396,2.8138 -8.885113,-3.30092 -8.586537,9.6342 0.02442,5.5166 4.731821,-1.3491 5.892817,-11.20211 5.045099,-12.51377 z m 24.8125,0 c 1.774213,3.88527 -4.466225,1.125 0,0 z m 39.125,0.25 c 4.52752,-0.57696 -1.31268,1.39619 0,0 z m -12.40625,0.21875 c -1.27991,1.33014 2.24426,-0.27542 0,0 z m -59.40625,0.15625 c -1.645924,-0.13876 0.685271,1.22594 0,0 z m 45.03125,0.59375 c -2.182831,6.29662 -12.764837,0.32265 -2.603753,0.67677 0.893214,-0.0897 1.734628,-0.46663 2.603753,-0.67677 z m -48,0.25 c -2.595174,-0.53949 -0.460891,2.32839 0,0 z m 11.875,0 c -1.769957,-0.21619 0.754596,1.47707 0,0 z m -30.59375,0.8125 c -2.4186,-0.0969 0.970012,1.17225 0,0 z m 26.59375,0.0312 c 2.511758,1.27388 -2.360401,2.26142 0,0 z m 38.125,0.0937 c -3.926668,-0.64002 -5.773963,2.75602 0,0 z m 21.8125,0.34375 c -3.68022,0.59558 -5.4851,0.23901 0,0 z m -87.46875,0.1875 c -5.085808,1.10276 -8.023137,7.47347 0,0 z m 55.96875,0.15625 c 0.69975,5.49812 -6.65247,-1.23959 0,0 z m -12.4375,1.46872 c -3.523236,2.4529 3.852195,1.5451 0,0 z m 219.28125,0.25 0.54221,0.2438 -0.54221,-0.2438 z m -233.1875,0.1875 -1.791233,0.7928 1.791233,-0.7928 z m 65.125,0.6875 c 8.14129,-0.72 -6.66548,4.3242 0,0 z m -56.3125,0.094 c 1.316586,0.6654 -4.058654,0.2336 0,0 z m 70.84375,0.031 c 4.25077,2.3249 -6.8762,0.9744 0,0 z m -2.71875,0.031 c 0.94654,0.6117 -0.8182,0.4498 0,0 z m -105.1875,0.1875 c -8.520599,1.5269 -0.93479,8.2285 0,0 z m 96.84375,0 0.12934,0.6415 -0.12934,-0.6415 z m 20.4375,0.094 c 5.73603,1.4796 -5.64903,0.55 0,0 z m -5.5,0.3125 c 5.15753,-2.1541 -1.42779,2.607 0,0 z m -107.96875,0.031 c -3.043554,0.1504 -2.366606,3.4614 0,0 z m 30,0 c -1.770123,1.2418 3.227368,1.0393 0,0 z m 79.8125,0.1563 -0.34375,0.094 0.34375,-0.094 z m -10.09375,1.0625 c 3.41311,-0.019 0.15579,2.565 0,0 z m -109.125,0.2187 -0.925484,0.617 0.925484,-0.617 z m 15.9375,0 c -2.315472,4.7289 -9.170361,1.6946 -1.734156,0.3206 L 34.625,1003.768 z m 64.28125,0.1875 c -7.905942,0.4692 4.33911,3.7292 -1.573453,1.9153 l 0.511046,-1.1682 1.062407,-0.7471 z m -50.375,0.1563 c 2.482311,1.9641 -1.719674,2.2427 0,0 z m 85,0.4375 c 2.078,0.1896 -1.12483,1.7346 0,0 z m 7.34375,0.125 c 10.7837,0.4352 -6.18687,2.5698 -1.74371,0.1433 l 1.74371,-0.1433 z m -122.5,1.1562 c -3.605766,0.7532 1.878974,1.5847 0,0 z m 35.875,0.062 c -5.032623,-0.4963 1.900468,1.6139 0,0 z m 76.9375,0.5313 c 6.3917,0.2163 -3.16883,2.6985 0,0 z m -105,0.1875 c -3.489929,6.9271 -6.439182,0.4075 0,0 z m 83.28125,0.2187 c -4.85478,-1.1583 -0.31493,2.1156 0,0 z m -28.6875,0.031 c -2.532538,1.2242 1.860971,1.3442 0,0 z m -47.90625,0.1875 c -0.655563,1.9952 -1.614196,-0.2296 0,0 z m 72,0.4375 c -0.93764,0.7068 3.79067,-1.0105 0,0 z m -35.03125,0.5 c -5.727597,0.4509 3.043433,5.182 0,0 z m 46.5,0.2812 c -2.22061,-0.4579 -0.73409,2.3661 0,0 z M 59.75,1008.6747 c -0.586135,1.6255 -2.155868,-0.2807 0,0 z m 24.28125,0 c -1.78013,1.1027 1.817071,-0.3486 0,0 z m 4.59375,0 c -4.681275,1.5 6.707413,-0.4497 0,0 z m -8.34375,0.625 c -5.419175,2.5972 4.544667,2.4988 0,0 z m -18.21875,1.0312 c -6.955918,0.1383 2.071194,5.3911 0.704827,0.2593 l -0.704827,-0.2593 z m 91.6875,0.2188 c -3.77746,2.4269 6.64618,-1.2923 0,0 z m -128.6875,0.031 c -0.641945,2.0539 -4.065252,0.051 0,0 z m 48.625,0.375 c -4.126426,0.011 -3.370715,4.2865 0,0 z m 74.375,0.031 c -2.26321,1.2847 2.42289,0.6693 0,0 z m -118.875,0.031 c 0.03409,1.4665 -1.302076,-0.041 0,0 z m 5.4375,0 c -0.57804,0.9378 -1.458226,-0.1556 0,0 z m 79.59375,0.1563 c -7.92637,-1.2894 1.85324,4.9367 0.37492,0.4419 l -0.36686,-0.4324 -0.008,-0.01 z m 28.25,0 c -0.23844,1.3367 1.33352,-0.7558 0,0 z m -106.1875,0.1875 c -1.066079,3.3976 -4.569644,1.2306 0,0 z m -7.40625,0.6875 c 0.536764,0.6762 -2.941572,0.052 0,0 z m 30.34375,0.3437 c -1.771521,0.1623 0.667107,1.6466 0,0 z m -34.40625,0.25 c -0.608591,2.2562 -3.067173,-0.3624 0,0 z m 76.5,0 c -5.515307,-1.8696 -2.984715,4.5804 0,0 z m 5.65625,0 c -2.10379,0.5871 1.69534,1.235 0,0 z m -42.03125,0.4375 c -10.962365,2.3626 -0.350437,5.2073 0,0 z m 24.625,0.5625 c -5.583945,0.6294 4.464673,1.6108 0,0 z m -34.34375,0.031 c -1.529385,0.2356 0.557398,1.172 0,0 z m -24.25,0.5937 c -0.865096,2.157 -4.635344,-0.06 0,0 z m 18.6875,0 c -4.89403,1.5451 -7.610511,7.1874 -0.929119,3.0001 0.883364,-0.639 1.621025,-1.9317 0.929119,-3.0001 z m -14.71875,0.1875 c 1.837482,0.546 -3.729358,0.8966 0,0 z m 45.53125,0.25 c -7.865319,-1.0195 1.091836,7.3662 0,0 z m 4.125,0 c -3.740383,-0.574 -0.725232,2.3825 0,0 z m -65.5,0.5938 -0.423339,0.4704 0.423339,-0.4704 z m 15.53125,1.2187 c -0.105832,1.4801 -1.617519,-0.74 0,0 z m 37.71875,0.6563 c -3.913769,0.3272 -3.017983,4.144 0,0 z m -32.625,0.1875 c -7.959545,-2.5949 -0.114378,9.1387 0,0 z m 8.9375,1.5625 c -4.100128,-0.7199 -1.257246,1.9143 0,0 z m 13.8125,1.375 c -2.471723,-0.3011 -0.19967,1.6666 0,0 z m 6.53125,0 c -1.04345,1.4146 1.279358,1.1259 0,0 z m -28.90625,0.3437 c -2.104266,0.1234 0.742274,1.5308 0,0 z m -11.0625,0.6875 c 0.64003,3.9973 -3.948069,3.0822 0,0 z m 9.5625,0.1875 c -5.811461,0.1367 -4.044796,3.592 0,0 z m 9.15625,0.5938 c -1.476352,1.7699 3.658556,-0.5364 0,0 z m -1.03125,2.5 c -7.118915,1.6565 3.913127,2.2412 0,0 z m -8.6875,0.8437 c -1.16936,0.1844 0.242261,1.1197 0,0 z m -7.75,2 c -3.142869,1.16 2.356626,1.5153 0,0 z m 8.8125,0.2188 c -1.508134,-0.1048 0.898894,0.8508 0,0 z m -1.28125,0.4375 c -3.388425,-0.9603 -0.51377,2.488 0,0 z m -4.125,0.8437 c -5.378863,0.4053 -8.154186,5.6836 -1.470503,1.4879 0.226979,-0.044 3.948659,-1.1468 1.470503,-1.4879 z m -8.875,4.5 c -4.828792,1.9716 -7.043731,5.7826 -0.927713,1.7603 l 0.357115,-0.5447 0.570598,-1.2156 z m -3.0625,2.125 -0.03235,-0.1741 0.03235,0.1741 z m -0.0625,-0.1875 c 0.173849,-2.6759 -1.984531,1.7212 0,0 z m 1.53125,-4.9062 c -11.317925,5.2605 0.726782,4.6387 0,0 z"
       id="path3005"
       inkscape:connector-curvature="0" />
  </g>
</svg>
