<?xml version="1.0" encoding="UTF-8" standalone="no"?>
<!-- Created with Inkscape (http://www.inkscape.org/) -->

<svg
   xmlns:dc="http://purl.org/dc/elements/1.1/"
   xmlns:cc="http://creativecommons.org/ns#"
   xmlns:rdf="http://www.w3.org/1999/02/22-rdf-syntax-ns#"
   xmlns:svg="http://www.w3.org/2000/svg"
   xmlns="http://www.w3.org/2000/svg"
   xmlns:sodipodi="http://sodipodi.sourceforge.net/DTD/sodipodi-0.dtd"
   xmlns:inkscape="http://www.inkscape.org/namespaces/inkscape"
   width="300"
   height="90"
   id="svg7478"
   version="1.1"
   inkscape:version="0.48.4 r9939"
   sodipodi:docname="brush_01.svg">
  <defs
     id="defs7480" />
  <sodipodi:namedview
     id="base"
     pagecolor="#ffffff"
     bordercolor="#666666"
     borderopacity="1.0"
     inkscape:pageopacity="0.0"
     inkscape:pageshadow="2"
     inkscape:zoom="2.8"
     inkscape:cx="186.68813"
     inkscape:cy="98.701105"
     inkscape:document-units="px"
     inkscape:current-layer="layer1"
     showgrid="false"
     inkscape:window-width="1920"
     inkscape:window-height="1023"
     inkscape:window-x="0"
     inkscape:window-y="0"
     inkscape:window-maximized="1" />
  <metadata
     id="metadata7483">
    <rdf:RDF>
      <cc:Work
         rdf:about="">
        <dc:format>image/svg+xml</dc:format>
        <dc:type
           rdf:resource="http://purl.org/dc/dcmitype/StillImage" />
        <dc:title></dc:title>
      </cc:Work>
    </rdf:RDF>
  </metadata>
  <g
     inkscape:label="Layer 1"
     inkscape:groupmode="layer"
     id="layer1"
     transform="translate(0,-962.36218)">
    <path
       style="fill:#231f20;fill-opacity:1;fill-rule:nonzero;stroke:none"
       d="m 80.15625,975.36218 c -3.388504,-2.5931 -10.277789,2.95055 -2.875091,0.43851 6.329874,-2.9605 12.464388,8.23358 3.121259,5.99629 -7.841614,-2.26046 -13.345742,4.55725 -20.775255,4.18508 -4.196281,-0.37457 -10.428281,0.74467 -2.487524,1.46912 8.095604,1.99696 15.852033,6.02564 24.436552,5.23496 4.456015,-0.0849 13.814227,0.74633 14.967895,2.3505 -9.443084,0.22453 -19.340047,-2.72527 -28.404712,1.14015 -3.992575,-1.79665 -14.467341,1.88281 -4.862674,1.9709 9.424102,0.50998 18.869802,1.06765 28.192992,2.60391 -8.060112,5.4637 -17.8453,-2.22293 -26.605248,0.8747 -1.457612,3.3149 10.289546,0.9967 13.687008,1.7427 5.089403,-0.6885 13.375819,4.2244 4.081121,3.319 -4.817798,0.059 9.800859,1.735 13.385673,2.287 5.888524,0.8288 12.042074,1.4829 17.492204,3.8453 -9.80819,2.9783 4.21922,3.5477 7.33382,5.3323 -2.27541,-0.1031 -11.54337,0.2908 -4.19673,2.0211 13.01287,4.4149 26.67345,6.2957 40.08993,9.0396 -6.96792,-1.9605 3.31118,-5.501 4.67546,-0.5949 11.29727,4.8916 23.96416,3.2933 35.78304,5.8799 10.19591,1.2354 20.42218,5.062 30.76203,2.8238 9.4674,-4.7247 9.9012,-16.7984 13.19357,-25.6271 2.21835,-9.0091 -4.60545,-16.90461 -12.98949,-19.07279 -14.89868,-4.97432 -30.81167,-5.61049 -46.32321,-7.25662 -23.857,-1.82699 -47.68838,-4.04073 -71.35664,-7.58638 -10.06956,-1.21226 -20.18013,-2.20209 -30.32598,-2.41703 z M 68.625,992.39343 c -2.351731,-2.26039 -0.274777,1.74535 0,0 z m -2,-0.75 c -2.463485,-1.0991 -10.887601,-2.20802 -8.72285,2.62048 -0.933919,-5.72203 6.263835,-0.90574 8.72285,-2.62048 z m -3.84375,0.5625 c 0.827744,0 0.417245,0 0,0 z m 2.25,-16.75 c -3.545917,0.40385 2.528005,1.00613 0,0 z m -10,0.40625 c -3.241027,-0.008 1.709419,0.80203 0,0 z m 5.625,0.0937 c -2.21163,0.60391 1.732284,1.61881 0,0 z m -14.34375,0.21875 c 0.265709,2.33739 1.954902,-0.72712 0,0 z M 94,977.48718 c 7.90419,-1.86843 2.116089,5.51662 -0.877653,0.46321 L 94,977.48718 z m -21.09375,0.96875 c -3.308251,-0.11797 -11.235352,0.91331 -3.295829,0.97129 0.523592,-0.0654 7.524811,0.55921 3.295829,-0.97129 z m -15.25,0.0625 c -2.365615,1.22948 4.063393,-0.36352 0,0 z m 20.53125,0 c -4.965017,0.72062 2.812117,0.68939 0,0 z m -28.46875,0.0312 c 1.677259,2.07235 2.734412,-1.98727 0,0 z m 60.9375,0.75 c 2.04227,-0.44626 -1.22507,1.29986 0,0 z m 1.875,0.1875 c 2.97618,-0.9763 0.54374,2.0793 0,0 z m -8.5625,0.0625 1.54296,0.13818 -1.54296,-0.13818 z m 3.28125,0.40625 c 1.28459,0.18892 -0.9841,1.04509 0,0 z m 1,0 0.55087,0.0918 -0.55087,-0.0918 z m -13.8125,0.5 c 4.992566,-1.78083 4.652477,4.02137 -0.260582,0.96536 -1.237473,0.16593 -2.388001,-2.21938 0.260582,-0.96536 z m -28.96875,0.9375 c -2.187028,-1.34908 -2.805059,1.53276 0,0 z m 10.21875,0.75 c 1.674862,0.1861 2.147355,0.2386 0,0 z m 32.34375,0.21875 c 2.75196,1.88215 -5.13593,-1.21845 0,0 z m 5.6875,0.46875 c 1.77559,-1.4898 0.70277,1.66222 0,0 z m -35.625,0.375 c 2.811974,1.4853 -5.773143,-0.90196 0,0 z m -19,0.34375 c -5.029736,-0.84399 3.770815,2.33215 0,0 z m 10.75,0.8125 c 5.515679,-1.15262 -0.563717,3.80631 0,0 z m -30.40625,0.65625 c 0.147792,1.32579 0.999017,-1.11543 0,0 z m 41.34375,0 c -1.609726,3.75735 -4.338171,-2.12356 0,0 z m -34.125,0.0625 c -6.185293,1.6592 0.09407,6.17189 0,0 z m -2.40625,1.3438 c -0.667174,-0.27471 -0.494923,-0.20378 0,0 z m 40.3125,-0.90625 c 2.648095,-1.51059 2.039493,3.01063 0,0 z m 7.40625,0.125 c 4.509292,1.77828 -5.381458,-0.23817 0,0 z m 6.5,0.5 c 3.0812,0.35553 -2.255314,1.17151 0,0 z m 4.3125,0.5625 c 2.19523,0.49345 -0.62157,1.20997 -0.59363,0.21723 l 0.59363,-0.21723 z M 40,987.14343 c -3.349337,1.01712 2.504774,1.64051 0,0 z m -3.90625,0.1875 c -2.20558,0.75462 1.630339,1.12191 0,0 z m 27.15625,0.0312 c 6.127697,-0.94312 -2.043325,5.15177 0,0 z m -5.53125,0.21875 c -1.427277,1.11298 1.954812,0.25545 0,0 z m -2.25,0.0312 c -2.562435,-2.19303 -0.433835,1.94563 0,0 z m 13.34375,0.3125 c 5.364018,-2.23463 0.208877,3.99001 0,0 z m 11.65625,0.34375 c -0.381144,3.25295 -1.975597,0.33864 0,0 z M 56.375,989.11218 c 1.152449,0.10835 1.30581,0.12277 0,0 z m -11.6875,1.15625 c 1.823316,4.50766 6.509684,-2.39895 0,0 z m -19,0.125 c -2.850406,0.59873 3.026224,0.1555 1.479236,-0.0127 l -1.479236,0.0127 z m 10.03125,0.0937 c -5.609044,-0.30418 4.548348,1.21305 0,0 z m 61.46875,0.71875 c 3.05917,0.0631 -1.693778,2.61228 0,0 z m -39.25,0.9375 0.34375,0.0625 -0.34375,-0.0625 z m -6.34375,1.25 c 1.152449,0.10835 1.30581,0.12277 0,0 z m -16.21875,0.5 c 5.263726,0.43598 6.17156,-0.0862 0,0 z m 46.0625,1.125 c 4.536407,-1.45017 -1.200784,1.67501 0,0 z m 23.0625,0.1875 c 4.63134,-1.60928 -1.88632,2.11615 0,0 z m -66.15625,0.28125 c -4.389812,-2.18142 -0.829852,2.36709 0,0 z m 5.28125,0.46875 c 4.940308,3.74377 6.974469,-1.02259 0.574667,0.0198 l -0.450986,-0.0155 -0.123681,-0.004 0,-4e-5 z m 63.4375,0.3125 c 2.85838,-1.01538 1.1179,1.415 0,0 z m -60.9375,3.99992 c -1.435542,-1.15984 0.03296,1.2472 0,0 z m 7.875,0.2813 c -1.015832,1.7476 2.640665,-1.25364 0,0 z m 0.6875,0.3437 c 0.724302,0.7874 0.579537,-0.99347 0,0 z m 4.0625,0.3438 c 0.189951,1.5927 1.128442,-1.0597 0,0 z m 37.5625,0 c 5.53438,1.7018 -4.337925,2.2693 0,0 z m 15.71875,0.2187 c 1.13415,-0.9618 0.75918,1.5451 0,0 z m -11.09375,0.7188 c 4.82195,1.0896 -3.556,0.2779 0,0 z m 2.6875,0.25 c 8.40602,-2.8616 0.95907,5.9835 0,0 z m 4.8125,0.8125 c 5.08755,-1.5486 2.21464,4.367 0,0 z m -29.375,1.8125 c 0.730363,1.173 1.046797,-1.1897 0,0 z m 4.28125,0.2812 c -1.983462,0.9438 4.903224,-0.8712 0,0 z m 34.15625,0.1875 c 1.14401,-0.8196 0.6117,1.5573 0,0 z m -23.59375,0.3125 c 2.327746,-1.4942 1.529902,1.4886 0,0 z m 11.34375,0.75 c 1.2045,5.1583 -8.983549,0.2198 0,0 z m -26.84375,2.375 c -0.405478,2.859 3.849952,-2.0013 0,0 z m 31.46875,0.4375 c 1.38896,0.755 -1.36669,-0.082 0,0 z m -22.09375,0.4375 c 2.085118,3.5914 3.971779,-2.3388 0,0 z m 29.03125,0.7813 c 0.7569,-1.4831 0.69108,1.122 0,0 z m -22.25,0.2812 c 2.291907,2.6084 4.125042,-0.9757 0,0 z m 10.03125,1.5 c -4.36092,-0.3172 3.26845,1.4317 0,0 z m -7.40625,0.8125 c 1.226567,0.2829 0.95446,0.2202 0,0 z m 6.21875,0.9375 c -1.16082,1.263 4.57285,-1.6212 0,0 z m 0.75,0.25 c 0.81122,0 0.47017,0 0,0 z m -15.5625,0.75 c 2.01432,2.3637 2.257763,-1.0038 0,0 z m 25.625,0.4375 c 1.93843,0.2513 2.17177,0.2815 0,0 z m -12.9375,1 c 2.00536,1.4676 3.06101,-0.4113 0,0 z m 18.21875,0.1875 c 2.89875,-2.1197 1.38678,3.247 0,0 z m 5.46875,1.4063 c 7.77764,-0.025 2.44113,6.883 0,0 z m -5.46875,2.1875 c 1.55748,-0.7844 -0.38455,1.8005 0,0 z m 14.25,1.7812 c 3.77157,-1.6214 7.7044,3.1333 0,0 z m 21.59375,5.4064 c 0.78517,0.229 0.48183,0.1405 0,0 z m 0.75,0.2186 c 0.81159,1.4726 1.69389,-1.1841 0,0 z m 3.03125,0.75 c 0.68943,0.069 0.56187,0.057 0,0 z m 0.65625,0.062 c 0.86945,1.5375 1.83106,-1.447 0,0 z m 10.78125,1.3438 c 1.38073,-0.6336 2.13579,1.6961 0,0 z m 11.15625,3.125 c -2.64661,-1.4814 0.24827,1.2165 0,0 z"
       id="path4341"
       inkscape:connector-curvature="0" />
  </g>
</svg>
