<?xml version="1.0" encoding="UTF-8" standalone="no"?>
<!-- Created with Inkscape (http://www.inkscape.org/) -->

<svg
   xmlns:dc="http://purl.org/dc/elements/1.1/"
   xmlns:cc="http://creativecommons.org/ns#"
   xmlns:rdf="http://www.w3.org/1999/02/22-rdf-syntax-ns#"
   xmlns:svg="http://www.w3.org/2000/svg"
   xmlns="http://www.w3.org/2000/svg"
   xmlns:sodipodi="http://sodipodi.sourceforge.net/DTD/sodipodi-0.dtd"
   xmlns:inkscape="http://www.inkscape.org/namespaces/inkscape"
   width="300"
   height="90"
   id="svg7478"
   version="1.1"
   inkscape:version="0.48.4 r9939"
   sodipodi:docname="brush_05S.svg">
  <defs
     id="defs7480" />
  <sodipodi:namedview
     id="base"
     pagecolor="#ffffff"
     bordercolor="#666666"
     borderopacity="1.0"
     inkscape:pageopacity="0.0"
     inkscape:pageshadow="2"
     inkscape:zoom="2.8"
     inkscape:cx="186.68813"
     inkscape:cy="98.701105"
     inkscape:document-units="px"
     inkscape:current-layer="layer1"
     showgrid="false"
     inkscape:window-width="1920"
     inkscape:window-height="1023"
     inkscape:window-x="0"
     inkscape:window-y="0"
     inkscape:window-maximized="1" />
  <metadata
     id="metadata7483">
    <rdf:RDF>
      <cc:Work
         rdf:about="">
        <dc:format>image/svg+xml</dc:format>
        <dc:type
           rdf:resource="http://purl.org/dc/dcmitype/StillImage" />
        <dc:title></dc:title>
      </cc:Work>
    </rdf:RDF>
  </metadata>
  <g
     inkscape:label="Layer 1"
     inkscape:groupmode="layer"
     id="layer1"
     transform="translate(0,-962.36218)">
    <path
       style="fill:#231f20;fill-opacity:1;fill-rule:nonzero;stroke:none"
       d="m 97.881973,982.79874 c -5.557277,-0.17169 -15.956957,2.15876 -4.414912,0.61504 0.31748,-0.12651 8.915109,-0.38167 4.414912,-0.61504 z m 54.596377,1.42314 c -3.20335,1.04288 4.47564,-0.23402 0,0 z m 2.64034,0.029 c 1.51497,2.01705 2.64686,-1.498 0,0 z m 2.96304,0.17426 c 2.45975,1.57428 3.82542,-1.01853 0,0 z m 17.19155,0 c 2.74203,0.13243 2.86829,0.13853 0,0 z m -89.448861,0.23235 c -1.268328,0.67263 2.637445,-0.67451 0,0 z m 11.001419,0 c -3.021684,-0.38774 0.462611,0.98199 0,0 z m 12.702972,0 c -2.86971,0.93102 3.66426,-0.14154 0,0 z m 72.58002,0 c 0.30801,1.34492 1.64597,-0.99378 0,0 z m -10.1213,0.58087 c -1.03288,1.26591 4.83724,-0.86339 0,0 z m -33.38564,0.029 1.17376,0.0723 -1.17376,-0.0723 z m 13.9938,0.11617 0.80772,0.15387 -0.80772,-0.15387 z m 23.29368,0 c -0.76844,1.73474 2.22773,-1.0203 0,0 z m -17.80764,0.31948 1.51508,0.16363 -1.51508,-0.16363 z m 9.76926,0.17427 c 0.55561,1.76801 2.67153,-1.44426 0,0 z m -34.23641,0.11618 0.5574,0.11616 -0.5574,-0.11616 z m 1.29084,0 c 1.16189,-1.31349 0.33384,1.36076 0,0 z m 44.79777,0 0.58949,0.10033 -0.58949,-0.10033 z m -36.61272,0.0581 0.48202,0.0774 -0.48202,-0.0774 z m -33.64967,0.058 c -3.67803,1.28597 6.54397,-0.67851 0,0 z m 38.49029,0 c 1.81178,0.32761 -1.93586,0.20625 0,0 z m -66.243204,0.17426 0.55544,0.0402 -0.55544,-0.0402 z m 70.262394,0 c 23.1754,1.43013 46.50975,0.14088 69.5206,3.63478 22.54943,2.9399 45.36368,5.96583 66.82526,13.7108 15.32784,3.445 9.30394,29.4347 -5.68633,24.9703 -8.94965,-5.326 -19.89412,-6.0127 -29.9371,-8.4249 -32.81691,-5.4224 -65.68321,-10.9667 -98.90353,-13.241 2.054,-2.3442 -16.14259,-0.692 -7.14329,-2.9052 -9.26092,-4.03108 -3.01863,-6.16373 3.223,-4.9061 13.95956,0.14692 -6.3727,-3.49745 -10.85115,-2.75873 -12.11991,-1.3973 9.4906,0.84587 11.17875,-1.65336 10.88998,-4.24693 -8.58654,-1.50269 -12.15463,-3.53655 -5.51908,-0.54547 -8.37177,0.62391 -0.93021,-0.36199 15.11062,-3.166 30.41419,-1.11631 45.51803,0.80722 7.2878,0.40367 -6.56237,-2.51842 2.72623,-1.41432 -11.11294,-1.4397 -22.3114,-2.17558 -33.38563,-3.92095 z m -79.474248,0.31948 c -4.51311,0.16748 1.442121,0.32768 0,0 z m 45.677888,0 c 2.86591,0.14045 2.99442,0.14674 0,0 z m 82.2906,0.20331 c 5.70758,-1.5943 0.22757,1.61995 0,0 z m -128.291195,0.60998 -0.298396,0.1306 0.298396,-0.1306 z m -5.39803,0.029 c -2.752475,0.43946 -3.235499,0.51658 0,0 z m 53.070845,0.84227 0.54649,0.14725 -0.54649,-0.14725 z m 15.57801,0 c -8.46657,-1.10824 0.40248,5.63843 0,0 z m 75.3377,0 1.82329,0.29591 -1.82329,-0.29591 z m -117.025747,0.14521 c -6.79253,-0.32582 2.367209,1.78281 0,0 z m 26.403407,0.40661 -0.62427,0.20317 0.62427,-0.20317 z m -11.14811,0.31948 c -11.146878,1.87122 -19.738265,2.71508 -30.539903,3.08619 -4.797299,1.89009 -14.291474,3.71484 -13.254769,-2.11665 -4.630888,-0.13213 -24.33423,5.15163 -11.512488,3.24485 4.260732,1.40133 -11.004047,2.09721 -13.275978,4.77384 -6.101675,3.87971 -20.59297,8.19981 -22.738799,9.05751 4.78068,-1.3093 18.725097,-4.0475 6.458595,-0.9717 -3.602743,0.2521 -13.17802,4.2176 -4.222056,2.874 -7.108029,1.6474 -12.8050048,6.047 -7.219386,4.7865 -5.2213623,6.5551 14.094899,-2.0572 19.940185,-1.8648 18.11898,-1.3195 35.726527,-6.1813 53.807004,-7.6114 5.308994,-1.211 24.013765,2.3672 10.684268,-2.496 -14.085287,-3.84016 15.089737,-5.89434 2.17056,-5.61309 -5.359548,0.64624 -14.634088,-1.51548 -3.749076,-2.06631 6.791733,0.3257 3.574646,0.68517 1.269672,-1.92552 5.826881,-4.97057 26.005451,1.89152 24.909161,-1.88903 -4.21164,-0.25332 -8.78681,0.54672 -12.72699,-1.26839 z m -14.316509,15.50914 c 1.429672,0 3.016692,0 0,0 z M 68.955578,989.68205 c 1.165088,-0.1017 0.934354,-0.0816 0,0 z m -4.253881,3.68853 c 1.154004,-0.0357 0.894539,-0.0276 0,0 z m 0.938788,-0.029 c 4.060586,-0.54386 2.847148,-0.38133 0,0 z m 20.389295,-4.15321 c 0.311752,1.29595 1.261256,-1.03109 0,0 z m 17.77828,0 2.12292,0.17676 -2.12292,-0.17676 z m 18.07168,0 0.17173,0.26449 -0.17173,-0.26449 z m -15.37266,0.058 c -1.39821,0.0263 1.46243,0.11235 0,0 z m 69.05957,0.20331 c 5.75057,-1.16497 0.12843,1.25937 0,0 z m -90.593007,0.029 c -3.631062,0.13505 -4.472559,1.14047 0,0 z m 41.952067,0 c -2.71513,-1.70341 -3.75207,2.81779 0,0 z m -11.00141,0.23234 1.07303,0.20656 -1.07303,-0.20656 z m 53.10018,0 1.88929,0.21676 -1.88929,-0.21676 z m -30.80397,0.17426 c -1.54599,0.57102 2.31836,-0.30177 0,0 z m -80.999776,0.029 0.460265,0.0404 -0.460265,-0.0404 z m 16.751492,0 c -4.07537,0.71819 -2.865177,0.50493 0,0 z m -11.558824,1.13269 c 0.884515,-0.54259 -0.323411,0.88672 0,0 z m 10.06263,0 c -5.070795,-0.34529 1.03566,1.12735 0,0 z m 31.889438,0.43565 c 1.53299,0.76435 4.91025,-0.11382 1.39966,-0.12485 l -1.39966,0.12485 z m 1.93625,0.40662 c -1.64779,0.85725 1.94067,0.40083 0,0 z m -57.852784,-0.11618 -0.703607,0.20487 0.703607,-0.20487 z m 27.166168,0 c 0.119649,1.54836 3.388042,-2.27328 0,0 z m 34.148406,0 c 4.16066,0.30512 2.93351,0.21513 0,0 z m -46.763366,0.29044 c 0.123255,1.0912 -1.65202,-0.60059 0,0 z m 58.439526,0.11618 c 3.01898,2.6491 6.09738,-1.24809 0,0 z m 3.08041,1.62642 c -1.70907,-1.24595 -0.37824,1.32294 0,0 z m 13.49507,-1.53929 c 1.12357,1.80242 4.5744,-1.5646 0,0 z m -91.238429,0.029 -0.304662,0.0924 0.304662,-0.0924 z m 14.785905,0.0872 c -1.447823,1.73468 -4.057427,-1.67718 0,0 z m 70.233054,0 c -4.49254,1.22925 4.95896,-0.23537 0,0 z m 3.43244,0 0.83437,0.0151 -0.83437,-0.0151 z m 18.86377,0.14522 c 0.60276,1.30677 -2.26295,0.14779 0,0 z m -91.35578,0.0872 c 1.163763,-1.3518 0.50163,1.23449 0,0 z m 55.74052,0 c -2.14579,-0.77066 0.26627,2.01826 0,0 z m 31.91877,0.0581 c 1.47342,1.5608 -2.95766,-0.86823 0,0 z m -74.516262,0.55183 -0.36675,0.30451 0.36675,-0.30451 z m 55.065762,0.29042 c 0.19038,2.6696 4.75636,-1.6171 0,0 z m -13.84712,0.29044 0.076,0.17686 -0.076,-0.17686 z m -32.564193,0.26139 c -2.760204,3.23033 -2.315671,-0.83605 0,0 z m 34.148403,0.0581 c -4.48376,-0.63343 -2.19277,2.97045 0,0 z m 19.33316,0.0872 c -0.96269,0.0489 0.66034,0.38114 0,0 z m -0.2347,0.14523 -0.35204,0 0.35204,0 z m -11.88153,0.14521 0.30888,0.0341 -0.30888,-0.0341 z m -0.29337,0.029 c -4.28273,-1.25432 -1.71297,3.54891 0,0 z m -0.088,1.16174 c 3.92956,1.75836 1.93865,-1.38681 0,0 z m -88.187369,-1.04557 c -0.261439,0.59826 0.9767,-0.62259 0,0 z m 69.704979,0.14522 c 0.26242,1.17334 2.08966,-1.35714 0,0 z m -26.432745,0.52271 c 5.199372,-0.36292 -4.276691,1.14346 0,0 z m 4.693937,0.0581 c 2.691077,-0.71409 -1.509236,1.25181 0,0 z m 33.150948,1.1327 c 5.23111,3.32953 10.21211,-0.0625 1.53605,0.61597 l -1.53605,-0.61597 z m -35.879299,0.31947 0.595733,0.0907 -0.595733,-0.0907 z m -10.502687,0.11618 c -2.848462,0.57457 -4.006763,0.80821 0,0 z m 11.558822,0 c 1.784385,-0.36724 -0.296655,1.59127 0,0 z m 26.550084,0 c 1.86957,3.1592 4.84793,-3.06039 0,0 z m 6.19014,0.17426 0.46939,0.0872 -0.46939,-0.0872 z m -23.205661,0.14522 c 1.893263,-0.12148 -1.64243,0.64866 0,0 z m -12.673633,0.14522 c 0.713499,0.53119 -1.278414,0.12366 0,0 z m 48.230214,0.26139 c 0.35374,2.21232 1.89122,-1.49919 0,0 z m 16.95685,0.11614 c -2.43778,1.28149 5.4265,-0.0892 0,0 z m -0.90945,0.0874 -0.67351,-0.0257 0.67351,0.0257 z m -45.589872,-0.0291 2.326202,0.11511 -2.326202,-0.11511 z m -62.458716,0.26146 c -2.230011,-0.87493 0.579225,1.39601 0,0 z m -0.762766,0.1452 -0.130757,0.0546 0.130757,-0.0546 z m 62.898773,0.3195 c -1.653224,-0.0828 0.853366,0.40929 0,0 z m 1.994921,0.1161 c -1.637072,3.64341 4.07642,-1.48432 0,0 z m 22.79495,0.1162 c -1.28305,1.40441 4.16811,-1.05388 0,0 z m 0.96811,0.3194 0.52807,0 -0.52807,0 z m -31.65474,-0.1162 -0.700283,0.17368 0.700283,-0.17368 z m 10.38533,0 c -0.59727,2.89451 2.72588,-1.5478 0,0 z m 22.79495,0.087 c 2.88255,1.93501 4.02598,-1.28887 0,0 z m -26.520756,0.2033 c -1.573672,-0.75262 -0.589237,1.46291 0,0 z m 5.808736,0 c 1.72834,1.49191 4.00797,-1.78117 0,0 z m -16.106063,0.2614 c 1.89764,1.17871 -6.785369,-0.28332 0,0 z m 34.353763,0.029 c -3.19388,-1.42248 -0.21453,2.19941 0,0 z m -9.73993,0.43561 c -4.46091,1.4412 4.35275,1.8859 0,0 z m 4.37124,0.2615 c 1.17513,2.2325 4.94881,-2.97886 0,0 z m -83.434756,0.029 c -4.23002,-1.1629 -1.389691,2.2708 0,0 z m 103.002606,0.1161 c -1.22649,1.18 1.3841,0.456 0,0 z m -106.464386,0.8423 -0.39723,0.3323 0.39723,-0.3323 z m 88.950136,0.7842 c -3.58799,-0.9767 1.66756,2.0628 0,0 z m 13.26037,0.1452 -0.587,0.1197 0.587,-0.1197 z m -15.90072,0.1163 c -1.5162,-0.9138 -0.144,1.2648 0,0 z m 23.61638,0 c -3.52267,-1.6819 -2.50958,2.0916 0,0 z m -30.12921,0.058 1.09533,0.1243 -1.09533,-0.1243 z m -83.757467,0.668 -0.395991,0.271 0.395991,-0.271 z m 9.329203,0.1452 -0.452981,0.152 0.452981,-0.152 z m -2.170947,0.1452 c 0.668921,1.0685 -3.003624,-0.684 0,0 z m 67.563371,0.2904 2.13499,0.5406 -2.13499,-0.5406 z m 17.77829,0.4067 c -3.01335,-1.1584 0.23481,1.1779 0,0 z m 8.83048,0.5227 c 1.29769,1.9438 4.84123,-1.3397 0,0 z m 12.58562,0.087 c -1.0754,0.5285 1.54817,-0.2399 0,0 z m -55.94588,0.4356 -0.837794,0.2545 0.837794,-0.2545 z m 21.1814,0.1162 1.60134,0.1988 -1.60134,-0.1988 z m 4.63527,0 c -1.2439,-0.1527 0.36968,0.7954 0,0 z m 1.32016,0 c -1.95959,0.4148 2.40281,0.1052 0,0 z m 2.20028,0 c -1.12168,0.4674 1.11526,-0.041 0,0 z m 11.76419,0.3195 c -4.50567,-0.519 1.90067,1.3732 0,0 z m -95.903028,0.2323 c 4.131783,-0.5629 -2.422255,1.3576 0,0 z m 98.631378,0.087 c -5.98019,-0.7952 2.21058,1.0547 0,0 z m 6.9529,0.087 c -3.93606,0.5993 4.40831,0.6268 0,0 z m -2.46432,0.1743 0.59067,0.1295 -0.59067,-0.1295 z m 14.84458,0.2323 c -0.6169,2.6026 5.33035,-1.452 0,0 z m -122.189084,0.3486 c -0.932998,3.4864 -4.068139,-1.349 0,0 z m 48.582262,0.058 -0.30474,0.093 0.30474,-0.093 z m -16.868841,0.5227 c 1.909488,-1.216 -0.255238,1.9124 0,0 z m -35.615256,0.7261 c 0.637587,3.1902 -3.125259,-1 0,0 z m 2.552329,0.5228 c 0.452188,2.8871 -3.512128,-0.495 0,0 z m 22.120185,1.2198 c 2.872102,-1.3479 2.741199,0.085 0.09207,0.2501 l -0.09207,-0.2501 z m -1.525531,0.087 c 1.697138,0.8143 -4.763458,-0.1023 0,0 z m -24.877873,0.029 c 0.801913,-0.3021 -0.48108,0.8001 0,0 z m 12.438937,0.1162 c -7.038371,2.2998 -6.703192,0.3413 0,0 z m -5.075322,0.1162 c -2.479817,1.8928 -1.790327,-0.8843 0,0 z m 16.487459,0.058 -0.41072,0.1163 0.41072,-0.1163 z m 252.709895,0.4358 c 2.30352,-0.8472 -0.043,1.9829 0,0 z m -276.120912,0.2903 c 0.238994,1.1377 -1.417663,-0.3182 0,0 z m 1.437518,0.2614 c -2.695489,5.4922 -7.494634,-0.9632 0,0 z m 5.368692,0.4647 c 0.812282,-0.8361 0.08091,1.0162 0,0 z m -17.0742,0.9875 c 1.415437,0.2882 -2.4949027,0.099 0,0 z m 9.094505,0.7551 c -0.534402,2.3135 -2.589547,-1.0572 0,0 z m 2.669677,0.5519 -0.05867,0.2033 0.05867,-0.2033 z m -0.05867,0.2033 -0.137596,0.089 0.137596,-0.089 z m -0.05867,0.087 c -6.993984,1.5049 2.369629,1.1268 0,0 z m 10.532025,-0.2904 -0.32226,0.1325 0.32226,-0.1325 z m -15.754032,0.1162 c 1.544106,-0.2511 -1.142592,0.8235 0,0 z m 0.762765,1.7426 c 0.455479,0.988 -2.245275,-0.4222 0,0 z m -12.6149591,1.1618 c -2.031836,0.2456 1.3625038,0.2383 0,0 z m -1.8775744,0.058 c -4.9307089,-0.6331 1.6176598,0.9665 0,0 z"
       id="path5553"
       inkscape:connector-curvature="0" />
  </g>
</svg>
