<?xml version="1.0" encoding="UTF-8" standalone="no"?>
<!-- Created with Inkscape (http://www.inkscape.org/) -->

<svg
   xmlns:dc="http://purl.org/dc/elements/1.1/"
   xmlns:cc="http://creativecommons.org/ns#"
   xmlns:rdf="http://www.w3.org/1999/02/22-rdf-syntax-ns#"
   xmlns:svg="http://www.w3.org/2000/svg"
   xmlns="http://www.w3.org/2000/svg"
   xmlns:sodipodi="http://sodipodi.sourceforge.net/DTD/sodipodi-0.dtd"
   xmlns:inkscape="http://www.inkscape.org/namespaces/inkscape"
   width="300"
   height="90"
   id="svg7478"
   version="1.1"
   inkscape:version="0.48.4 r9939"
   sodipodi:docname="brush_02S.svg">
  <defs
     id="defs7480" />
  <sodipodi:namedview
     id="base"
     pagecolor="#ffffff"
     bordercolor="#666666"
     borderopacity="1.0"
     inkscape:pageopacity="0.0"
     inkscape:pageshadow="2"
     inkscape:zoom="2.8"
     inkscape:cx="186.68813"
     inkscape:cy="98.701105"
     inkscape:document-units="px"
     inkscape:current-layer="layer1"
     showgrid="false"
     inkscape:window-width="1920"
     inkscape:window-height="1023"
     inkscape:window-x="0"
     inkscape:window-y="0"
     inkscape:window-maximized="1" />
  <metadata
     id="metadata7483">
    <rdf:RDF>
      <cc:Work
         rdf:about="">
        <dc:format>image/svg+xml</dc:format>
        <dc:type
           rdf:resource="http://purl.org/dc/dcmitype/StillImage" />
        <dc:title></dc:title>
      </cc:Work>
    </rdf:RDF>
  </metadata>
  <g
     inkscape:label="Layer 1"
     inkscape:groupmode="layer"
     id="layer1"
     transform="translate(0,-962.36218)">
    <path
       style="fill:#231f20;fill-opacity:1;fill-rule:nonzero;stroke:none"
       d="m 155.65625,978.92468 c -13.82841,0.0245 -27.63127,1.10368 -41.375,2.5625 1.07298,1.37637 -17.39576,2.96526 -5.28633,2.50402 5.71428,-0.83733 21.48204,-3.44156 21.00066,-0.0627 -3.3535,3.81607 19.35828,1.24737 5.89313,2.83619 -6.233,0.76934 -23.75102,2.02198 -22.65224,2.79408 9.86526,0.86705 26.39843,-2.81071 32.10426,0.8608 -4.48385,1.12784 -23.61009,1.92893 -10.00269,1.70435 11.81929,-0.34639 24.15252,0.48035 35.39366,1.73049 -3.47599,2.82478 -24.96147,0.48213 -10.58052,2.09355 1.32755,4.10259 19.11891,1.92191 26.20693,4.53089 7.87781,1.4441 7.33649,1.352 3.02805,4.7903 5.39705,-0.4507 8.05567,2.3053 0.92441,1.3517 -0.84611,-1.0428 16.41808,3.8874 5.62186,6.0027 -5.26729,-1.3136 -8.22235,-0.7111 -1.37936,0.3324 4.06132,1.5657 14.30778,0.3552 14.61666,3.7353 -4.71764,-0.3011 -18.1874,-2.9605 -18.0763,-1.3507 29.52211,4.5191 58.26661,13.5079 88.08724,16.1746 11.2446,5.0966 17.92636,-7.0613 16.99026,-16.6922 5.84946,-14.4011 -13.48405,-15.41832 -22.44077,-19.86223 -26.40149,-7.99216 -54.02557,-10.32973 -81.36633,-12.84071 -12.17321,-2.1062 -24.31181,-3.55809 -36.70758,-3.19538 z m 41.5,37.78122 c -2.19953,-1.7084 -1.12762,1.3334 0,0 z m -11.84375,-2.5937 -0.53125,-0.031 0.53125,0.031 z m -82.5625,-28.84377 -0.55748,0.2168 0.55748,-0.2168 z m 73.1875,-4.375 c 2.96692,0.87982 -2.43311,1.27369 0,0 z m -56.3125,1.25 c 0.59804,0.74923 -1.60516,-0.421 0,0 z m 6.25,1.53125 c -4.74176,-0.0416 1.02707,1.88583 0,0 z m -8.03125,0.34375 c 2.36514,3.24122 -6.35342,2.74316 0.87203,2.46822 3.85225,-1.14973 2.74678,-3.6462 -0.87203,-2.46822 z m 4.5625,0.125 c 0.53305,4.47163 2.63346,0.002 0,0 z m 2,1.65625 0.80257,0.0157 -0.80257,-0.0157 z m 0.96875,-0.0312 0.62397,-0.0345 -0.62397,0.0345 z m -2.53125,0.0937 -0.70121,0.0271 0.70121,-0.0271 z m -13.4375,-1.375 c 1.20826,2.02557 4.64774,-0.82704 0,0 z m 5.96875,0 c -1.02685,-0.60188 -0.24541,0.85563 0,0 z m -23.625,0.8125 c -2.553202,0.67558 2.046735,1.27415 0,0 z m 15.25,0.1875 c -0.55658,0.84279 1.2163,-0.62632 0,0 z m 61.46875,0 c 4.33561,0.72175 -4.26196,0.27043 0,0 z m 2.125,0.25 0.74311,0.0927 -0.74311,-0.0927 z m -68.40625,0.15625 c -5.925065,0.23399 1.50404,0.59064 0,0 z m -4.5625,0.5625 c -4.607822,2.27985 -17.24298,5.62022 -4.674676,4.19328 2.199306,-0.18006 8.435866,-2.56171 4.674676,-4.19328 z m -10.6875,0.4375 c -2.553445,0.94416 6.103365,0.32973 0,0 z m 25.40625,0.5 c -6.94821,0.49957 -6.56337,1.29505 0,0 z m -37.125,0.6875 c -2.733227,0.858 0.351087,6.40113 -5.766619,4.32333 6.628859,-0.76947 -0.796677,2.39177 5.164358,0.85062 3.958854,-2.28327 -2.551288,0.33645 2.146094,-2.2715 l -0.270106,-1.47368 -1.273727,-1.42877 0,0 z m -2.5625,1.40625 -0.213477,0.0136 0.213477,-0.0136 z m -0.21875,0.0312 c -2.755626,-1.42169 -0.807376,2.48618 0,0 z m 10.40625,-1.03125 c -4.327708,-0.1937 -5.728165,2.40885 0,0 z m 14.1875,0 c 1.962134,-0.35549 -1.346443,0.75508 0,0 z m -29.09375,0.8125 c -1.507149,2.92323 4.433581,-0.71554 0,0 z m 39.15625,0.21875 c -3.55825,0.0703 2.66792,1.32219 0,0 z m -41.125,0.0625 -1.166659,0.34177 1.166659,-0.34177 z m 19.28125,0.125 c -2.554244,0.54735 2.651529,-0.13467 0,0 z m 57.4375,0 c -6.08606,0.0803 2.92185,0.91091 0,0 z m 0.9375,0.0625 0.53125,0.125 -0.53125,-0.125 z m -80.84375,0.125 c -4.346437,0.27177 -1.354407,2.40494 0,0 z m 20.0625,0.25 -1.225101,0.26034 1.225101,-0.26034 z m -17.4375,0.3125 c -0.285585,1.16949 2.300666,-1.63175 0,0 z m 34.375,0.25 1.20963,0.18144 -1.20963,-0.18144 z m -17.875,0.59375 c -1.453047,-1.01232 -0.578994,0.92398 0,0 z m -19.125,0.34375 c -2.053657,1.4276 2.715713,-0.53736 0,0 z m 48.875,0.25 c -8.40213,0.0484 -1.10079,1.56369 -4.16217,1.45626 -13.957049,2.08408 -28.14951,2.73149 -41.90408,6.06072 18.705497,-2.63121 37.496,-4.59456 56.285,-6.51693 -3.03588,-2.37589 -7.94386,2.69632 -10.21875,-1.00005 z m -59.6875,0.0625 c -7.287628,-0.70317 3.849003,2.07763 0,0 z m 4.53125,0.125 c -1.134162,-0.38206 0.0535,0.84751 0,0 z m 9.46875,0.625 c -3.948239,0.76218 -5.109613,1.5194 0,0 z m 94,0 c 1.98319,-1.10084 1.68435,1.93144 0,0 z m -112.0625,0.1875 c -3.626946,-0.25055 0.661659,2.47678 0,0 z m 52.4375,0 c 0.60427,1.55343 1.74089,-1.04193 0,0 z m 76.71875,0.28125 c 6.14192,0.66482 9.51621,1.72266 1.51645,2.17511 -3.97115,1.20159 -9.03079,-2.06814 -1.51645,-2.17511 z m -80.84375,0.125 c -5.861019,0.18726 -4.963553,1.63783 0,0 z m -31.1875,0.84375 c -0.142917,1.14654 1.127491,-0.60097 0,0 z m -0.78125,0.1563 c -3.842963,0.26036 -3.008734,1.03585 0,0 z m -21.15625,0.15625 c -3.476884,-1.51623 -2.810109,3.3169 0,0 z m 5.46875,0.15625 c -5.611176,4.73014 6.79149,0.25878 0.402697,0.0127 l -0.402697,-0.0127 z m 6.28125,0.0312 c -4.090099,-0.40624 -1.944204,1.41736 0.419694,0.36065 l -0.419694,-0.36065 z m 56.59375,0.125 c -7.76476,0.34402 -4.04222,2.37359 1.48264,0.29896 l -1.48264,-0.29896 z m -26.75,0.125 c -5.717109,0.1705 -10.81473,1.94779 -2.657352,0.41635 0.886361,-0.13506 1.771495,-0.27804 2.657352,-0.41635 z M 39,995.14343 l 0.0834,0.018 -0.0834,-0.018 z m -0.0625,0.0312 c -3.895642,-1.22771 -1.854812,3.36569 0,0 z m 104.15625,0.28125 c -10.10396,-1.35286 -2.5618,6.11642 0,0 z m -41.125,0.25 c 0.63913,0.98081 1.50769,-0.953 0,0 z m 31.96875,0 0.67953,0.13591 -0.67953,-0.13591 z m 15.40625,0.0312 c -0.86249,2.04859 3.49497,0.90328 0,0 z m -53.65625,0.71875 c -4.625677,0.4906 -23.259458,3.00683 -9.384056,1.54452 3.164717,-0.18509 6.393498,-0.40023 9.384056,-1.54452 z m -0.78125,0.84375 c -0.461434,1.56144 2.208858,-0.87128 0,0 z m 37.96875,-0.84375 c -6.93326,0.41794 4.78819,0.26302 0,0 z m 16.0625,0.15625 c -0.30534,0.48105 0.9764,-0.30609 0,0 z m -4.21875,0.0937 c 1.22303,2.03332 2.55663,-1.23603 0,0 z m -76.53125,0.1875 c -2.067462,1.35198 5.112877,-1.50489 0,0 z m 86.5625,0.21875 c -4.44824,-1.51961 -0.40925,2.41669 0,0 z m 0.90625,0 -0.056,0.0415 0.056,-0.0415 z m 0.0937,0.0312 0.5,0.15625 -0.5,-0.15625 z m 2.37505,-0.0312 -1.26328,0.17627 1.26328,-0.17627 z M 32.5,997.14343 c -6.117415,0.10858 -9.369869,3.02747 -1.798268,0.72543 0.599423,-0.24181 1.198845,-0.48362 1.798268,-0.72543 z m -10.21875,2.75 c -6.517795,1.00037 -8.1411,5.55067 -1.138576,1.00687 l 1.138576,-1.00687 z m 121.125,-2.75 c 0.58765,1.09854 1.31958,-1.22376 0,0 z m -78.375,0.3125 c -0.48524,1.13387 2.478462,-1.52528 0,0 z m 44.5625,0.0937 c -9.975114,-0.22617 -1.27628,3.10497 2.29139,-0.35121 l -2.29139,0.35121 z m -46.25,0.125 c -1.585624,-0.2774 0.641578,0.79912 0,0 z m -0.40625,0.21875 -0.3125,0 0.3125,0 z m 36.46875,0.8125 c -4.124885,0.14822 -19.874566,1.46942 -16.137528,1.98642 5.400349,-0.4167 10.885054,-0.5204 16.137528,-1.98642 z m -15.09375,0.1875 -0.53125,0.21875 0.53125,-0.21875 z m -0.53125,0.21875 c -1.295788,-1.34088 -1.092972,2.06547 0,0 z m 45.375,0.1875 c 0.65415,2.70637 2.64714,-1.52482 0,0 z m 11.3125,0.15625 c -0.43928,1.32072 1.56895,-0.64924 0,0 z m -23.375,0.40625 c -6.31733,0.70227 0.77889,2.52467 0,0 z m -47.8125,0.0312 c -3.450578,-0.31511 -0.602772,0.73557 0,0 z m -10.375,0.56247 c 0.345484,1.0263 1.001879,-1.30864 0,0 z m 49.9375,0 c -4.04197,2.1025 5.07578,0.2177 0,0 z m 52.21875,0.25 1.87095,0.1049 -1.87095,-0.1049 z m 6.1875,0 1.52571,0.176 -1.52571,-0.176 z m -105.71875,0.3438 c -2.215108,0.6937 2.654235,-0.1314 0,0 z m 79.625,0 c -5.69158,0.7157 5.91416,0.3042 0,0 z m -85.4375,0.062 c -2.625233,-0.688 0.445232,1.0061 0,0 z m 117.65625,0.031 c 1.43484,1.1449 3.55394,-0.6074 0,0 z M 75,1001.2997 c -3.728652,-0.1969 -2.64924,0.9241 0.140724,0.2226 L 75,1001.2997 z m 58.5625,0 c -7.78311,0.4263 6.54542,0.3882 0,0 z m -38.03125,0.062 c -1.982803,-0.8346 -0.18998,1.2313 0,0 z m -31.65625,0.094 c -1.713154,0.5261 1.18063,0.086 0,0 z m 52.375,0.2188 c -8.70694,1.6557 -28.110174,0.7416 -30.145992,2.4891 10.072515,-0.396 20.222692,-0.5233 30.145992,-2.4891 z m -16.03125,0.031 c -3.275233,-0.5742 0.63828,1.2504 0,0 z m -56.8125,0.1563 c -1.101565,0.2336 -0.824682,0.1749 0,0 z m -1.03125,0.2187 c -3.976775,-1.2293 -1.602524,1.479 0,0 z m 6.46875,-0.2187 c 2.134351,2.6115 2.698053,-2.49411 0,0 z m 133.8125,0 c 4.95433,1.7577 6.94108,-0.1788 0,0 z m -95.3125,0.1875 c -1.428768,0.789 1.907541,-0.2243 0,0 z m 75.125,0 c -3.63852,0.439 3.803,0.3086 0,0 z m -101.0625,0.062 c -2.178578,-0.8597 -0.08549,1.0711 0,0 z m 13.46875,0 c 0.761316,0.748 1.412901,-1.0881 0,0 z m 20.28125,0.1875 c -2.259708,-1.0554 -1.122402,1.6881 0,0 z m 49,0 c -2.56554,-0.028 1.57926,0.4852 0,0 z m 33.6875,0.3437 c 0.703,0.8761 2.38565,-0.9225 0,0 z m 0.8125,0.1875 c 1.2638,1.9334 4.05275,-1.0286 0,0 z m -54.53125,0.25 c -4.48703,-0.5041 1.69705,0.8985 0,0 z m -1.0625,0.2188 -0.85381,0 0.85381,0 z M 25,1003.6747 c -1.633606,-0.5736 0.0082,0.8187 0,0 z m 137.21875,0.1875 c -4.03593,0.01 -5.12917,0.6413 0,0 z m 6.71875,0.2187 c 2.7963,2.0537 4.14488,-1.304 0,0 z m -28.875,0.2188 c -1.49646,-0.1557 0.71699,0.5744 0,0 z m -117.46875,0.1562 c -2.05449,0.6836 2.215456,-0.2576 0,0 z m 114.15625,0 c -2.77702,0.2719 1.09738,0.2673 0,0 z m -126,0.25 c -9.0360825,2.7315 -0.721794,4.8444 1.227108,0.1489 L 10.75,1004.7059 z m 166.34375,0 c 6.2898,1.6673 8.53835,0.7183 0,0 z m -100.71875,0.125 c -2.124415,0.8063 1.956912,0.4559 0,0 z m -59.53125,0.2813 c -7.5713949,1.491 4.015944,2.7507 0,0 z m 2.25,1.3437 c 2.244638,1.4822 3.593864,-1.7744 0,0 z m 105.9375,-1.3437 c 0.26575,1.2321 1.02573,-1.248 0,0 z m 0.15625,0.3437 c -1.53942,0.7125 1.70625,0.4245 0,0 z m -53.71875,-0.1875 c -2.948768,0.6708 3.850938,-0.2821 0,0 z m 42.8125,0.031 c -11.56255,0.251 4.22768,0.5267 0,0 z m 2.9375,0 c -1.23939,0.5955 2.2528,-0.2077 0,0 z m -106.625,0.1562 c 3.274747,-1.1507 -0.8080046,1.5899 0,0 z m 22.28125,0.25 0.596668,0.061 -0.596668,-0.061 z m 9,0 c -0.857989,0.8323 2.861905,-0.9949 0,0 z m 59.5625,0.1563 c 0.37138,1.0575 4.38098,-0.3648 0,0 z m -67.3125,0.25 c -2.37996,-0.4281 -3.57229,2.9953 0,0 z m 84.8125,0 c 1.41925,0.9206 3.52677,-1.445 0,0 z m -25.65625,0.3437 c -2.025218,0.7221 2.549004,-0.4012 0,0 z m 103.875,0 c 3.07892,-0.7708 1.44416,1.47 0,0 z m -106.3125,0.25 c -0.01408,1.1892 4.945628,-2.0329 0,0 z m 12.28125,0.1563 c -7.873935,0.7838 7.2118,-0.1048 0,0 z m -16.96875,0.25 1.878011,0.095 -1.878011,-0.095 z m -40.78125,0.1562 c -1.850273,-0.3647 -0.02261,0.7168 0,0 z m -0.5,0.2188 c -3.51803,-0.3729 -4.551889,1.6432 0,0 z m -4.25,1.0625 -1.201853,0.3004 1.201853,-0.3004 z m -22.59375,-0.8438 c -1.528321,-0.3573 -0.790078,1.1119 0,0 z m 68.53125,0.1563 c 1.519664,0.8301 3.722018,-0.412 0,0 z m -5.75,0.4062 c -1.4139,0.348 1.472153,0.235 0,0 z m 101.84375,0.031 1.80936,0.3919 -1.80936,-0.3919 z m -169.6875,0.1562 c 0.750831,2.1001 3.227282,-0.6372 0,0 z m 8,0 -1.331727,0.6533 1.331727,-0.6533 z m -11,0.4063 -0.9375823,0.5938 0.9375823,-0.5938 z m 183.625,0 2.03089,0.2461 -2.03089,-0.2461 z m 3.8125,0.25 c -0.97575,0.3894 1.13041,0.197 0,0 z m -24.15625,0.1562 -0.20321,0.043 0.20321,-0.043 z m 0.0625,0.031 c -0.20732,0.8466 0.65261,-0.2173 0,0 z m 0.21875,0.25 0,0.3125 0,-0.3125 z m -144.75,-0.25 c -2.456599,4.2263 -15.820846,4.9898 -4.745353,1.5421 1.539905,-0.6265 3.090222,-1.2862 4.745353,-1.5421 z m 8.90625,0 c -3.274782,1.5903 -19.589203,6.0707 -8.526132,2.3656 2.822276,-0.8576 5.665429,-1.6465 8.526132,-2.3656 z m 137.78125,0.125 -0.16831,0.038 0.16831,-0.038 z m 0.375,0.031 0.72103,0 -0.72103,0 z m 2.5625,0.25 2.12374,0.3633 -2.12374,-0.3633 z m -161.5625,0.4063 c -1.845271,-0.1615 0.452375,1.598 0,0 z m 165.28125,0.3437 c 4.85447,-1.8205 1.85567,1.9162 0,0 z m -167.8125,0.6563 c -1.857173,-0.875 -0.04823,1.318 0,0 z m 3.84375,0.75 c -1.61089,-0.458 -0.528746,1.2926 0,0 z m 147.21875,0 c 2.45555,-1.0982 1.17148,1.3164 0,0 z m 8.53125,0.5937 c 5.42908,0.6225 3.7107,1.1547 0,0 z M 15.375,1012.8622 c -2.366126,-1.0189 -0.398484,1.8617 0,0 z m 167.28125,1 c 3.57305,-1.8148 1.68389,1.6103 0,0 z m -172.21875,0.9375 c -1.6735824,-0.64 -0.07136,1.0884 0,0 z m -0.78125,0.3125 0.21875,0 -0.21875,0 z m 184.3125,1.3437 c 0.40157,1.0688 1.24232,-0.5711 0,0 z m 11.15625,1.6563 1.22436,0.1458 -1.22436,-0.1458 z m 5.03125,0.75 0.6756,0.1801 -0.6756,-0.1801 z"
       id="path4053"
       inkscape:connector-curvature="0" />
  </g>
</svg>
