<?xml version="1.0" encoding="UTF-8" standalone="no"?>
<!-- Created with Inkscape (http://www.inkscape.org/) -->

<svg
   xmlns:dc="http://purl.org/dc/elements/1.1/"
   xmlns:cc="http://creativecommons.org/ns#"
   xmlns:rdf="http://www.w3.org/1999/02/22-rdf-syntax-ns#"
   xmlns:svg="http://www.w3.org/2000/svg"
   xmlns="http://www.w3.org/2000/svg"
   xmlns:sodipodi="http://sodipodi.sourceforge.net/DTD/sodipodi-0.dtd"
   xmlns:inkscape="http://www.inkscape.org/namespaces/inkscape"
   width="300"
   height="90"
   id="svg7478"
   version="1.1"
   inkscape:version="0.48.4 r9939"
   sodipodi:docname="brush_07S.svg">
  <defs
     id="defs7480" />
  <sodipodi:namedview
     id="base"
     pagecolor="#ffffff"
     bordercolor="#666666"
     borderopacity="1.0"
     inkscape:pageopacity="0.0"
     inkscape:pageshadow="2"
     inkscape:zoom="2.8"
     inkscape:cx="-24.851196"
     inkscape:cy="92.195899"
     inkscape:document-units="px"
     inkscape:current-layer="layer1"
     showgrid="false"
     inkscape:window-width="1920"
     inkscape:window-height="1023"
     inkscape:window-x="0"
     inkscape:window-y="0"
     inkscape:window-maximized="1" />
  <metadata
     id="metadata7483">
    <rdf:RDF>
      <cc:Work
         rdf:about="">
        <dc:format>image/svg+xml</dc:format>
        <dc:type
           rdf:resource="http://purl.org/dc/dcmitype/StillImage" />
        <dc:title></dc:title>
      </cc:Work>
    </rdf:RDF>
  </metadata>
  <g
     inkscape:label="Layer 1"
     inkscape:groupmode="layer"
     id="layer1"
     transform="translate(0,-962.36218)">
    <path
       style="fill:#231f20;fill-opacity:1;fill-rule:nonzero;stroke:none"
       d="m 177.71875,981.51843 c -1.13581,0.78596 3.25583,-0.63329 0,0 z m 0.6875,0.15625 0.53125,0 z m -43.21875,0.15625 c 0.18102,1.15428 0.79443,-0.42302 0,0 z m 26.90625,0.15625 c -3.38131,-0.59384 1.75786,1.21929 0,0 z m -8.4375,0.1875 c -3.11151,0.68115 1.60029,1.3137 0,0 z m 11.1875,0 c -0.56069,1.4774 1.18691,-0.19802 0,0 z m -37.40625,0.15625 c -2.85465,0.33657 2.30108,0.4624 0,0 z m 16.09375,0 c 0.49947,1.04866 1.47027,-1.73764 0,0 z m 24.6875,0.21875 c -0.88455,0.95235 1.10902,0.3679 0,0 z m 21.4375,0 c 0.45182,0.78809 0.97661,-0.67029 0,0 z m -23.46875,0.1875 c -4.81192,-0.55874 2.01993,2.74929 0,0 z m -43.5625,0.0625 c -1.59752,1.58145 4.62928,-1.32285 0,0 z m 60.34375,0.0625 c -11.34261,2.93202 3.0289,3.61988 4.71993,5.63709 -3.33885,0.6265 -12.92047,-0.35944 -4.07193,1.16817 -6.40504,0.16225 -25.1681,-1.9204 -22.81078,1.24111 5.47838,-3.1458 22.67554,1.84792 13.02225,4.09774 -11.47198,-0.0768 -22.93392,0.21728 -34.33849,0.71951 -5.2972,-0.76472 -15.87881,8.4086 -6.41672,6.2114 2.86168,5.0861 -10.92437,8.0738 0.63406,8.2882 9.65472,-3.0246 24.32997,3.1273 32.15299,-4.0744 -1.16649,7.6467 8.64171,-2.9543 8.944,5.6504 14.62832,1.6333 30.14319,0 44.57023,4.4355 21.90237,4.6052 43.17082,11.6716 64.76944,17.452 11.6816,0 14.85398,-22.1769 7.19574,-27.5872 -9.72509,-4.3553 -20.20827,-6.82509 -30.26361,-10.35023 -12.29588,-3.36337 -24.9742,-5.09447 -37.24471,-8.56065 -12.8635,0.49423 -25.40626,-3.49989 -38.25725,-3.8937 l -1.30989,-0.19125 z m -49.03125,15.3125 0,-0.28125 z m 42.9375,-11.8125 c 0.0907,-1.4943 -1.35252,-0.84067 0,0 z m 4.1875,-2.8125 -0.4375,-0.15625 z m -56.78125,-0.65625 -0.46875,0.125 z m 67.71875,0 1.89778,0.14377 z m -17.6875,0.15625 c -1.2215,1.53427 1.63795,-0.12345 0,0 z m 2.71875,0 1.07466,0.12793 z m 18.28125,0 c 1.63476,0.21407 4.25486,0.55717 0,0 z m -77.28125,0.34375 c -1.39955,1.45425 3.70332,-1.05441 0,0 z m 81.875,0.15625 c 2.28454,0.36072 3.09808,0.48917 0,0 z m -83.34375,0.21875 c -3.20632,-0.68928 -1.89555,1.31479 0,0 z m 87.40625,0.28125 0.59296,0.18866 z m -17.375,0.0625 c 2.36509,1.94246 -3.997,-0.70137 0,0 z m -75.875,0.125 c -1.24886,-0.002 0.39258,0.35782 0,0 z m 42.9375,0 c -3.45479,-0.44114 0.47692,0.89144 0,0 z m -0.84375,0.25 -0.40625,0.15625 z m 52.9375,-0.21875 2.05322,0.35198 z m -39.09375,0.34375 c -2.94679,0.0263 2.63689,0.71922 0,0 z m 42.25,0.0312 c 1.94473,0.73666 6.57461,0.87317 1.904,0.19794 z m -37.84375,0.0937 c -2.26438,1.27132 4.79561,0.60041 0,0 z m -27.96875,0.0312 c 0.67116,1.05675 1.00791,-1.08171 0,0 z m -17.71875,0.15625 c -2.92749,0.26714 0.90902,0.46588 0,0 z m 12.4375,0 c -6.45196,0.81998 5.43975,0.1691 0,0 z m 57.03125,0 c 1.32992,-0.64819 -0.2388,1.12586 0,0 z m -9.46875,0.34375 c 3.19285,-1.41372 -0.0788,1.573 0,0 z m -10.9375,0.21875 c -3.94451,-0.88417 1.25431,1.37016 0,0 z m -56,0.125 c -3.63197,-0.84476 0.50264,1.35359 0,0 z m 12.625,0.0312 c -1.62348,0.44119 1.76875,-0.0556 0,0 z m -3.125,0.34375 c -0.55407,1.62295 1.3416,-0.54841 0,0 z m -12.875,0.0312 c -3.14367,-0.82374 0.29499,1.25694 0,0 z m 26.5625,0.125 c 2.40637,2.5825 1.69378,-0.62931 0,0 z m -17.28125,0.1875 c -5.16404,-1.58058 0.0604,1.75491 0,0 z m 7.03125,0.1875 c -1.24731,0.84206 1.42187,0.65669 0,0 z m 17.09375,0 0.60834,0.13352 z m 70.84375,0.34375 c 2.36943,-0.63174 1.32881,1.357 0,0 z m -26.0625,0.34375 c 0.4275,4.44909 -5.15099,-0.90911 0,0 z m -89.625,0.0312 c -1.14444,-0.41363 -0.39026,0.92873 0,0 z m 53.125,0.0937 c -3.51827,-1.89598 0.29018,2.14585 0,0 z m -32.59375,0.1875 c -3.38168,-0.14355 1.50852,1.50575 0,0 z m 85.5,0 c 3.28661,-1.29717 0.68775,1.6039 0,0 z m -13.375,0.125 c 2.70664,1.21843 -2.49309,1.39271 0,0 z m -53.6875,0.0312 c -1.23677,0.85385 1.75576,0.0124 0,0 z m 23.09375,0.0312 c -1.38768,-0.11595 0.97836,0.68949 0,0 z m -68.5,0.15625 c -3.282621,-0.30657 1.04053,1.07315 0,0 z m 76,0 c -5.55425,-0.53373 1.90706,1.49308 0,0 z m -40.9375,0.1875 c -2.87228,1.1537 4.68956,-0.49919 0,0 z m 34.375,0.0312 0.46875,0.15625 z m -49.71875,0.15625 c -1.20305,2.24978 2.74235,0.7339 0,0 z m 98.8125,0.0937 c 1.95057,-0.32504 6.11857,1.34132 1.77227,0.4748 z m -97.03125,0.0312 c -1.38703,0.9001 2.16826,-0.0792 0,0 z m 10.40625,0 c -2.50844,0.62111 2.35709,0.0202 0,0 z m 69.125,0.0625 c 1.03463,1.39715 -2.34498,-0.53006 0,0 z m -85.90625,0.15625 c 2.62702,2.15811 3.80654,-0.14812 0,0 z m 37.21875,0 c -5.37846,-0.32003 -5.46117,2.99339 0,0 z m 54.3125,0 c 3.62275,0.80426 -2.01508,2.4736 0,0 z m 18.9375,0 0.63265,0.12166 z m -21.96875,0.15625 c 2.09938,-0.69392 -0.0444,2.0043 0,0 z m 28.28125,0 1.11172,0.4941 z m -19.1875,0.125 c 3.74407,-0.63848 2.20704,1.0582 -0.27513,0.33219 z M 156.5,988.92468 c -6.94444,0.0424 4.91591,1.83823 0,0 z m 51.5,0.125 c 4.64574,0.69374 -3.98566,1.28887 0,0 z m -99.1875,0.0625 0.125,0.0937 z m 0.125,0.0937 c -0.25081,1.31125 1.21636,-0.55865 0,0 z m 1.65625,0.0312 c -0.87938,2.70799 2.29933,-0.26104 0,0 z m 26.03125,0.1875 c -2.13672,0.34263 1.48179,0.1029 0,0 z m 75.4375,0.0312 c 3.24892,0.34896 -1.19914,1.80139 0,0 z m 4.21875,0.0312 c 6.60901,-1.00375 -1.2946,4.83829 0,0 z m -92.8125,0.125 c -4.76739,1.48284 4.61513,0.46707 0,0 z m 94.25,0.21875 0.46059,0.11263 z m -140.875,0.0937 c -1.43295,1.73295 3.418907,-0.96431 0,0 z m 24.0625,0.0312 c -2.681333,-0.2749 0.57659,1.97738 0,0 z m 91.25,0.15625 c 0.81618,-0.5349 0.54278,1.00434 0,0 z m -89.3125,0.21875 c -1.16687,0.78237 1.20771,0.64097 0,0 z m 94.59375,0 c 1.20291,0.89481 -1.48249,0.17041 0,0 z m -82.90625,0.125 c -6.66322,5.96724 9.84686,-0.24857 0,0 z m 35,0 c -4.76768,6.26236 4.47835,0.43783 0,0 z m -4.71875,0.0312 c -1.72429,0.34989 1.83049,0.22329 0,0 z m 2.875,0.1875 c -1.82756,1.39614 2.24773,1.99436 0,0 z m -14.21875,0.125 c -5.3831,-1.23386 2.03213,1.92571 0,0 z m -1.375,0.28125 -0.40625,0.0937 z m -3.8125,-0.21875 c -5.31341,0.0625 3.35121,1.68039 0,0 z m -18.4375,0.0937 c -3.15644,3.84119 5.11339,1.99105 0,0 z m 14.9375,0.34375 c -3.76323,-1.70307 0.19693,1.33068 0,0 z m -1.90625,0.0312 c -1.84228,5.1223 -21.94197,2.67865 -8.23372,3.51135 2.81271,0.28123 10.65864,2.21658 8.23372,-3.51135 z m -18.09375,0.1875 c -3.92556,-0.51472 1.65943,1.27081 0,0 z m 75.84375,0.0312 1.11669,0.15509 z m 41.84375,0.125 c 1.15619,0.32629 -1.27301,0.17707 0,0 z m -79.40625,0.0937 c -1.32655,1.21454 3.51487,-0.74945 0,0 z m -41.34375,0.28125 c -2.412607,-0.93417 -1.31908,1.28407 0,0 z m 133.84375,0 c 3.18897,-0.82636 0.0214,1.77494 0,0 z m -153.71875,0.15625 0.46875,0.21875 z m 54.78125,0 c -5.10312,-1.35495 -3.45294,2.1937 0,0 z m -59.46875,0.15625 c -1.09735,1.58856 2.603585,-0.88806 0,0 z m 36.9375,0.0625 c 1.46486,-0.48099 -0.81128,1.04457 0,0 z m 14.4375,0.0312 c -6.33101,-1.85944 -1.14828,4.2917 0,0 z m 52.0625,0.0937 c 6.08742,3.12171 -7.28183,0.55672 0,0 z m -75.84375,0.0312 c -4.6455,-0.98905 -1.00126,3.68168 0,0 z m 62.53125,0.0312 c -1.45115,2.62931 3.03887,-0.869 0,0 z m 1.65625,0.84375 0.15625,-0.0312 z m 0.15625,-0.0312 c 1.58987,0.2446 -0.0808,-1.75269 0,0 z m -38.40625,-0.65625 c -1.00823,0.15422 0.84472,0.33363 0,0 z m 99.96875,0.0312 c 2.97922,-0.60139 -0.57604,1.7337 0,0 z m -130.21875,0.0937 c -2.93246,0.41872 1.15085,0.81177 0,0 z m 75,0.0312 c -1.05901,0.84294 0.94985,0.38791 0,0 z m 9.46875,0 c 1.74596,-0.96941 1.56257,1.81654 0,0 z m -125.9375,0.125 c -1.561996,-0.14169 0.459189,1.12179 0,0 z m 48,0 c -0.91185,1.09484 1.43969,-0.58831 0,0 z m 129.375,0.21875 c 3.24232,0.70911 -0.42348,3.99437 0,0 z m -99.9375,0.0937 c -5.89063,-0.35182 4.13929,2.07473 0,0 z m 56.0625,0.0625 c 1.82759,-0.81386 -0.70074,1.54307 0,0 z m 1.75,0.1875 c 0.13141,1.14614 -1.71141,-0.68931 0,0 z m -44.375,0.15625 c -1.5718,0.49652 1.77085,0.31191 0,0 z m -94.6875,0.15625 c -0.579629,1.17285 1.47765,-0.39395 0,0 z m 16.4375,0.21875 c -2.215293,2.0032 2.302534,0.92121 0,0 z m 18.9375,0 c -2.300715,1.25943 1.989562,1.33646 0,0 z m 77,0.125 c -1.05338,0.081 -0.53041,0.0408 0,0 z m -102.375,0.0312 c -1.429377,-0.48931 -0.334636,0.9742 0,0 z m 68.1875,0.3125 c -4.1963,0.82643 0.80046,2.48647 0,0 z m 67.125,0 c -0.7043,2.29788 -3.87583,-0.69267 0,0 z m -11.15625,0.1875 c 1.39864,-0.191 -0.74621,1.3459 0,0 z m -84.71875,0.21875 c -5.592996,-0.42062 -10.250723,2.91849 -1.99749,1.94718 0.98337,0.13064 2.90525,-0.67578 1.99749,-1.94718 z m 89.125,0 c 2.23928,-1.93547 0.89331,1.59183 0,0 z m -18.3125,0.0625 c 3.31696,-1.87317 0.36787,1.4177 0,0 z m -71.375,0.4375 c 1.99103,0.63894 -2.07263,0.7424 0,0 z M 80,995.64343 c -1.808999,0.0552 0.582327,0.51008 0,0 z m 48.34375,0.1875 c -5.46024,2.1863 4.28591,3.83542 0,0 z m -49,0.0312 0.21875,0 z m 89.65625,0 0.63121,0.0819 z m -91.84375,0.0937 c -2.717095,0.37989 0.606266,2.19124 0,0 z m -5.6875,0.0625 c -2.668606,1.73123 2.154815,1.47444 0,0 z m 35.625,0 0.4375,0.0312 z M 94,996.14343 c -0.1514,1.23629 1.775085,-1.4966 0,0 z m 29.28125,0 c -4.30373,-0.6929 1.39967,1.71834 0,0 z m -0.0625,0.75 c -2.44338,-0.27282 0.6129,2.2947 0,0 z m -7.96875,-0.5 c -4.88897,0.98786 -8.48278,8.14827 -1.1012,4.38497 5.35629,3.0044 15.97246,-1.00798 6.5624,-2.26113 -3.35087,1.48713 -4.39571,3.27583 -5.4612,-2.12384 z m -21.5625,0.125 c -3.616999,0.18143 -5.835645,2.44935 0,0 z M 59.75,996.73718 c 0.258701,1.21726 1.575554,-1.74226 0,0 z m 85.03125,0 1.22438,0.0831 z m 5.875,0.15625 c 2.14826,-0.49161 -0.0802,2.89333 0,0 z m -17.90625,0.0937 c -1.93726,-0.99788 -0.58434,1.12132 0,0 z m -0.8125,0.25 -0.375,0 z m -26.40625,-0.21875 c -1.52069,-0.70765 0.18829,1.0112 0,0 z m 39,0.34375 c 1.56688,0.32737 -2.29236,0.34056 0,0 z m -89.5625,0.2812 c -4.475128,-0.83378 -1.521265,2.07705 0,0 z m 76.9375,0.1562 c -3.30004,1.34309 7.68453,-0.979 0,0 z m -66.625,0.0937 c -0.522783,1.82567 2.023206,-0.78441 0,0 z m 12.625,0 -0.445942,0.44453 z M 96.5,998.08093 c -1.623394,0.40987 1.641507,3.6e-4 0,0 z m -12.28125,0.0312 c -4.461806,-0.24081 -3.633797,1.65808 0,0 z m 54,0.125 c 1.90649,0.49437 -5.95356,0.4741 0,0 z m 5,0 c 1.84174,-1.3071 1.09714,1.83817 0,0 z m -66,0.28125 c -3.989655,-0.0518 -4.468985,2.40312 0,0 z m -15.75,0.0937 c 0.436271,1.30496 1.034381,-0.92764 0,0 z m 46.78125,0.0937 c -2.96747,0.70129 1.52304,1.58842 0,0 z m -2.0625,0.0625 c -7.865629,-1.86131 -7.42533,9.45882 -1.63667,3.88682 0.74439,-0.9396 3.39879,-2.5274 1.63667,-3.88682 z m -1.375,3.62492 0.56109,0.063 z m -2.3125,3.5 c -3.302635,0.3758 1.90081,1.7968 0,0 z m -11,-6.96867 c -4.771388,-1.17228 1.203117,2.30127 0,0 z m -45.625,0.0312 1.116686,0.15509 z m 22.5625,0 -0.737164,0.38318 z m 87.15625,0.125 c -3.19027,6.10207 -7.24288,-1.52103 0,0 z M 53.75,999.11218 c -0.296245,0.73629 1.094569,-0.72762 0,0 z m -0.125,0.1875 -0.217123,0.0317 z m 4.5625,-0.1875 c -3.573347,-0.36976 -2.192334,1.46152 0.194419,0.37099 z m 52.0625,0 c 2.32698,-0.68079 -1.5238,2.42802 0,0 z m 35.34375,0 c 1.08678,0.90372 -1.30741,0.59315 0,0 z m 12.9375,0 0.70716,0.15469 z m -60.65625,0.0937 c -8.642453,0.85792 0.475524,7.42852 0,0 z m 51.5,0.0937 c 3.22988,-0.22004 -2.27611,1.00172 0,0 z m -84.25,0.125 c -2.006483,0.31682 1.509102,0.21571 0,0 z m 79.15625,0.0312 c 2.42077,0.38225 -1.31983,0.52653 0,0 z M 85.25,999.48718 c -4.966099,2.86082 3.18256,5.43762 0,0 z m -33.25,0.125 c -3.05046,-0.46643 1.150335,3.16382 0,0 z m 94.6875,0 c 1.07075,-1.21949 0.31304,1.38432 0,0 z m -100.03125,0.1875 c -2.392389,-0.26305 0.575859,0.79422 0,0 z m 12.5625,0.1875 c -6.534495,0.25572 -2.621008,10.30292 -1.630164,1.38952 0.384111,-0.6749 0.916362,-1.1007 1.630164,-1.38952 z m 98.65625,0.0312 c 7.83241,3.2563 -7.54754,2.5856 -1.05151,0.1779 l 0.58581,-0.099 0.4657,-0.079 z m -107.59375,0.1875 c -2.423662,0.2224 -0.383064,2.8063 0,0 z m 15.65625,0 c -4.499623,-0.72359 -1.353945,2.0912 0,0 z m 25.71875,0 c -2.322374,-0.71051 -1.485273,1.8223 0,0 z m 23.1875,0.031 c 0.66187,1.0943 -4.38015,-0.89358 0,0 z m 6.28125,0.094 c 0.91024,2.0091 -2.41004,-0.65239 0,0 z m -45.46875,0.1563 c -1.455277,-0.73836 -0.219512,1.2616 0,0 z m 27.5625,0 c -1.00778,2.7377 -4.34691,-1.18496 0,0 z m 40.90625,0 c -0.87905,2.8642 -3.33251,-1.01762 0,0 z m 24.875,0 c 2.34764,0.2859 0.92357,1.1747 0,0 z m -95.9375,0.1562 c -1.569559,0.7517 1.271481,0.6087 0,0 z m 98.625,0.1875 c 4.75398,-1.78185 -1.09434,1.6552 0,0 z m -90.09375,0.031 c -2.946224,0.6999 2.253262,1.8527 0,0 z m 64.5,0.1875 c 1.82584,-1.4349 0.48479,1.728 0,0 z m -8.375,0.125 1.2882,0.1003 z m -85.40625,0.031 c -2.182271,1.6009 -12.707286,5.1026 -4.668338,4.6395 -5.070451,4.1971 -14.19591,-1.8258 -14.773252,7.9404 -4.404268,1.7824 -0.671709,-4.3307 -6.860105,-2.0192 -8.300781,1.2248 12.442867,-6.4025 -0.0043,-2.7534 -2.817485,0.407 -13.108774,5.7144 -4.600271,5.3173 -3.808934,1.8815 -19.750848,4.1153 -7.440443,2.9979 -5.1732053,1.3007 -11.3521826,3.9168 -1.936834,2.0282 10.794688,-2.4602 21.522289,-5.7153 32.41672,-6.9446 6.490386,-2.4865 8.526881,2.2999 12.408327,-5.1274 -4.217052,2.1032 -9.538259,-3.0901 -4.149289,-4.096 0.05801,-0.6933 -0.232353,-1.3274 -0.392231,-1.9827 z m -31.0625,13.3125 -0.1875,0 z m -5.03125,0.094 -0.53125,0.062 z m 14.3125,-3.4063 c -0.43796,-1.5797 -1.57902,1.4164 0,0 z m 13.78125,-3.5625 -0.34375,0.125 z m 47.9375,-6.4375 c -0.69231,1.1734 0.870953,0.4513 0,0 z m 56.15625,0 c 0.15161,1.0384 -2.03499,-0.3986 0,0 z m -83.5625,0.125 c -4.333947,-0.1827 1.489896,0.9865 0,0 z m 34.25,0.2188 c 1.74372,-0.3315 -0.815277,0.5823 0,0 z M 79.75,1001.7059 c -1.025121,0.6859 1.295203,-0.2323 0,0 z m -33.59375,0.094 c -2.195751,1.5069 4.313012,-0.9959 0,0 z m 31.46875,0.062 c -4.229495,0.8434 4.184394,-0.1178 0,0 z m 34.25,0.062 c -2.62862,1.7458 5.69038,-1.117 0,0 z m 2.78125,0 c -1.5166,-0.8135 -0.33257,1.5553 0,0 z m -55.46875,0.031 c -1.87979,0.6879 1.613274,0.4815 0,0 z m 85.65625,0.125 c 0.39859,0.6143 -1.21367,-0.3647 0,0 z m -6.8125,0.125 c 2.15677,-1.1967 0.23816,2.2556 0,0 z m 3.15625,0 2.08087,0.063 z m -67.6875,0.031 c -5.654975,1.2467 -0.438565,7.4534 0,0 z m 32.71875,0 c -3.28527,-0.655 0.99073,1.0324 0,0 z m -59.6875,0.2812 c -4.114047,1.0983 1.478317,0.9529 0,0 z m 18.40625,0.2813 c -2.250354,0.917 2.243248,0.2908 0,0 z m 12.1875,0 c -1.109694,0.8444 1.032352,0.3149 0,0 z m 37.40625,0.125 c -3.2382,-0.7615 -0.52908,2.4745 0,0 z m 3.9375,0 c -4.47074,0.2824 -0.58945,2.5006 0,0 z m 3.71875,0.1562 c -4.71622,1.0166 6.62885,0.2134 0,0 z m -30.9375,0.3438 c -4.277328,-0.3968 0.727073,1.2783 0,0 z m 28.9375,0 c -1.15662,-0.7077 -0.10672,0.9697 0,0 z m -8.78125,0.1875 c -2.96333,0.531 1.38795,1.967 0,0 z m -51.78125,0.1875 -0.46875,0.2812 z m 6.78125,0 c -0.99687,0.4217 -0.630044,0.2665 0,0 z m 43.09375,0 c -3.12768,0.4048 2.08741,2.2167 0,0 z m 0.28125,1.5937 c -2.85503,-0.3897 -12.979822,4.5533 -6.86295,6.4829 -4.731849,-4.8014 -12.860009,3.3965 -4.524297,1.5252 3.678467,-1.9474 17.314117,2.2447 8.593857,-3.8353 -0.49111,-3.8056 7.73748,-1.1939 2.79339,-4.1728 z m -45.3125,-1.4375 -1.114635,0.3201 z m 16.71875,0 c -2.557249,-0.2197 1.116083,3.9869 0,0 z m 25.4375,0.125 c -1.22307,0.3624 1.21507,0.6434 0,0 z m -29.75,0.062 c -2.498428,0.1966 1.48412,1.1184 0,0 z m 12.53125,0 c -1.356957,-0.5008 -0.06573,1.3991 0,0 z m -44.875,0.1563 c -2.024971,-0.4382 -0.04914,1.1081 0,0 z m 12.375,0 c 1.339416,0.6963 -0.911153,1.2283 0,0 z m 2.1875,0 c 0.806981,2.4689 4.115525,-2.2763 0,0 z m 39,0 c -0.01093,1.6985 1.664723,-1.1262 0,0 z m -32.875,0.4375 c -4.849299,0.2739 2.224328,2.5486 0,0 z m -2,0.625 c -0.87788,0.2089 -0.736006,0.1751 0,0 z m -24.78125,-0.5625 c -1.825528,-0.4381 -0.464806,2.0922 0,0 z m 3.625,0 c -1.315912,-0.4766 0.05779,1.151 0,0 z m 73.25,0 c -7.94798,1.851 3.20468,2.6268 0,0 z m 15.9375,0 c -1.66719,-0.7748 -0.63886,0.9038 0,0 z m -12.84375,0.1562 c 3.15389,0.1764 4.56722,2.0812 0,0 z m -24.9375,0.031 c -1.545567,1.9303 4.124295,-1.7051 0,0 z m 12.40625,0 c -0.86504,1.3339 2.10058,-0.424 0,0 z m -15.375,0.062 c -3.925936,0.5263 3.16365,0.9353 0,0 z m -1,0.2187 -0.3125,0.062 z m 64.71875,-0.125 c 6.34263,0.6241 -6.02834,1.3449 0,0 z m -10.96875,0.062 c 0.14853,1.4347 -1.90011,-0.8278 0,0 z m -54.125,0.1563 c -1.014161,-0.7978 -0.123037,1.1059 0,0 z m -56.65625,0.031 c -1.516624,0.3239 0.942292,1.0012 0,0 z m 28.71875,0 c -2.176338,-0.8462 -0.759573,1.238 0,0 z m 75.125,0 c 1.84409,3.2959 4.66078,-0.7039 -0.1876,3.993 -3.91752,2.5048 -4.40577,-5.7214 0.1876,-3.993 z m 9.78125,0 c 2.52582,-2.3086 0.48255,2.0399 0,0 z m -114.625,0.125 c -1.635053,-0.2896 0.413546,1.2843 0,0 z m 45.375,0 c -2.425373,1.73 6.040433,-1.8611 0,0 z m -48,0.1563 c -5.053193,2.1586 -3.120246,2.3104 0,0 z m 34.53125,0.2187 c -4.659374,-1.3572 -3.553629,3.6617 0,0 z m 37.28125,0 c -5.682694,-0.2106 0.40753,4.6047 0,0 z m 41.3125,0.125 c 1.492,-0.6525 0.20039,1.2869 0,0 z m 4.40625,0.3438 c 2.70881,0.907 -1.96748,1.2747 0,0 z m -21.90625,0.062 c -3.42463,-0.6569 -0.88303,1.9812 0,0 z m -1.9375,0.5 -0.0785,-0.1799 z m -45.1875,-0.125 c -7.275924,-0.4576 -0.691278,2.8833 -4.308727,2.8562 1.014207,-0.153 6.701307,-0.721 4.308727,-2.8562 z m 19.84375,0.031 c -3.778195,-0.7647 -1.146436,1.8813 0,0 z m -67.09375,0.062 -0.511852,0.39 z m 61.21875,0.031 c -1.277869,0.9383 1.676005,0.065 0,0 z m 53.46875,0.031 c 1.24174,0.1638 -1.17082,0.6156 0,0 z m -31.03125,0.2813 c -2.02437,1.3665 2.1292,0.5134 0,0 z m -89.96875,0.031 c -2.491025,-0.139 -1.895807,2.876 0,0 z m 61.875,0 c -1.429371,1.6163 1.88802,1.3199 0,0 z m 57.09375,0 c -0.71645,1.7991 -3.30271,-1.9664 0,0 z m -99.5625,0.125 c -2.05437,-0.3625 0.437513,1.7702 0,0 z m 2.8125,0 c 0.737843,1.0409 -1.710167,0.2186 0,0 z m -12.75,0.375 c -4.139253,0.9217 1.586755,2.0803 0,0 z m 21.4375,0 0.260441,0.589 z m -0.8125,0.1875 c 1.545098,1.0745 -4.249614,-0.5705 0,0 z m 80.96875,0 c -1.15642,0.4065 1.19776,0 0,0 z m 3.3125,0 c 2.24866,-0.2066 -1.13055,0.6994 0,0 z m 9.1875,0.031 c 3.87253,-1.34 1.03461,0.6227 0,0 z m -51.28125,0.125 c -0.490922,0.8192 3.013111,-1.2332 0,0 z m 59.96875,0 c 1.18387,-1.1883 0.39877,1.2918 0,0 z m -32.25,0.3437 c -1.59235,3.0569 3.53066,-0.2393 0,0 z m -24.5625,0.1563 c -0.40951,2.0337 2.03806,-1 0,0 z m 103.84375,0.094 c 2.95708,-1.1073 -0.45271,1.8215 0,0 z m -84.78125,0.125 c -6.50206,0.425 -6.71088,4.6649 0.26153,3.1172 3.79369,0.071 1.95838,-2.7938 -0.26153,-3.1172 z m -3.75,0.5 -0.3125,-0.3437 z m -18.25,-0.4375 c -2.336573,-0.696 0.780268,2.1709 0,0 z m -73.96875,0.4375 c -4.205795,0.5192 0.110898,1.2877 0,0 z m 87.625,0 c -2.26151,0.4197 1.601,0.8416 0,0 z m 33.9375,0 c 0.66796,0.8565 1.41158,-1.6016 0,0 z m 66.9375,0 c 2.94175,-0.9176 -0.78107,2.1553 0,0 z m -168.09375,0.1563 c 1.423436,-1.3937 0.387805,0.887 0,0 z m 13.5625,0 c -3.546945,0.3311 2.426809,2.6434 0,0 z m 36.28125,0 c -1.534583,-0.3821 0.191789,1.3744 0,0 z m 20.40625,0 c 0.21049,1.2406 1.16621,-0.8412 0,0 z m 4.53125,0 c 1.06109,0.8433 -0.68296,1.0608 0,0 z m -28.5625,0.1875 c -1.484893,-8e-4 0.62699,0.7202 0,0 z m -30.125,0.031 c -0.205633,1.5332 1.406418,-0.4885 0,0 z m 10.53125,0 c -0.754312,1.7865 1.903212,-0.6271 0,0 z m 59.96875,0 c -0.4207,0.3398 0.5245,-0.1333 0,0 z m -13.28125,0.125 c 2.2247,0.7015 -2.11398,1.0304 0,0 z m 51.4375,0 c -4.28063,-0.9937 0.98486,2.2688 0,0 z m 35.46875,0.031 c 1.9684,-1.3799 0.73646,1.988 0,0 z m -123.71875,0.062 c -1.855734,1.3506 2.39496,0.6235 0,0 z m -51.5,0.062 c -1.285927,-0.3166 0.433584,0.786 0,0 z m 13.90625,0.3437 c 1.50396,0.028 -1.599784,0.8198 0,0 z m 135.40625,0.031 c 1.97903,-1.166 0.88294,1.5536 0,0 z m -72.46875,0.1875 c 1.21159,8e-4 -1.00801,0.4169 0,0 z m -80.1875,0.031 c -3.036685,1.5597 -2.833353,0.098 0,0 z m 16.5625,0 c -0.724061,1.653 -2.419441,-1.0618 0,0 z m 22.09375,0.125 c -6.151991,-0.1026 1.069174,1.2765 0,0 z m 12.03125,0 c -10.012733,5.068 2.337352,3.1741 0,0 z m 15.59375,0 c -2.394516,1.975 1.575418,2.0569 0,0 z m 60.9375,0.031 c -2.50468,-0.017 1.69166,1.351 0,0 z m 7.0625,0 c -2.3371,-0.1966 1.20211,1.27 0,0 z m -19.59375,0.125 c -2.0998,0.816 2.35521,0.7476 0,0 z m 16.65625,0 c -1.01718,-0.3179 0.07,1.0499 0,0 z M 87.25,1011.0809 c -10.517392,-1.3171 -1.562566,5.6778 0,0 z m -27.84375,0.5 0.590699,0.1153 z m 62.8125,0.1563 c -2.17979,-0.023 0.97933,1.8822 0,0 z m -81.75,0.1875 c -1.317297,1.7271 -4.096159,-1.225 0,0 z m 38.40625,0.125 c -8.46452,-1.1561 6.522578,4.1354 0,0 z m 21.5,0.062 c 1.67449,0.8861 -3.960531,-0.2351 0,0 z m -75,0.125 -0.493858,0.2111 z m 53.625,0 c 1.491157,0.9421 -1.718392,0.8798 0,0 z m -4.59375,0.2187 c -3.263876,0.7099 1.876021,1.4732 0,0 z m -51.0625,0.125 c 1.521273,-0.1616 -1.367308,0.6422 0,0 z m 24.6875,0 c -3.947723,0.2466 -2.054732,2.6987 0,0 z m -0.90625,1.4375 c -0.950037,0.1406 0.246769,0.9057 0,0 z m -15.90625,-1.0625 -1.833432,0.3316 z m 57.59375,0.3438 1.13035,0.225 z m -71.6875,0.1562 c 1.447961,-1.2894 0.264867,1.7645 0,0 z m 59.53125,0 c -1.539831,-0.7318 -0.405079,1.2631 0,0 z m -13.5625,0.1875 c -2.532168,1.7323 2.974326,0.6186 0,0 z m -21.625,0.375 c -2.52416,-1.0702 -9.013033,4.1905 -2.724918,1.6679 1.496987,5.7995 0.276684,-0.8139 2.724918,-1.6679 z m -2.46875,4.563 -0.489875,0.3832 z m 19.6875,-4.3125 c -3.187296,0.088 1.395879,2.1629 0,0 z m -15.65625,0.062 -0.491927,0.3383 z m 7.5625,0 c -3.446285,0.01 -1.282585,1.5331 0,0 z m 11.15625,0.1563 -0.28125,0.031 z m -35.15625,0.4062 c 0.931965,0.2502 -1.057785,1.1795 0,0 z m 26.71875,0.5 c -1.987513,-0.2529 -0.177968,1.5202 0,0 z m 8.9375,0 c 0.554015,0.8094 0.83763,-1.2348 0,0 z m -12.4375,0.375 c -3.553551,-0.6188 0.587085,2.8173 0,0 z m 184.15625,0.125 0.40625,0.2188 z M 32.25,1016.0497 c -1.002598,0.2278 0.929956,0.5303 0,0 z m 0.1875,0.3745 c -1.028011,0.7297 1.259322,0.057 0,0 z m 19.09375,-0.375 c -1.364519,0.036 0.553759,1.1494 0,0 z m 183.21875,0 c 0.0294,0.7842 -0.83677,-0.665 0,0 z m -214,0.1562 c -0.684728,1.2747 -2.759815,-0.4811 0,0 z m 20.53125,0.062 c 0.05383,0.7077 1.417575,-1.0867 0,0 z m 25.09375,0 c -3.397301,1.9699 4.341518,0.2421 0,0 z m -49.25,0.5 c -0.721871,1.4622 -1.487791,-0.467 0,0 z m 1.125,0 c 1.031836,0.2327 -1.90099,0.5514 0,0 z m 10.59375,0 c -5.341243,0.418 -11.836744,4.3501 -2.691064,1.9733 0.673757,-0.06 4.825028,-0.35 2.691064,-1.9733 z m 17.34375,0.5 c -0.893662,1.217 1.08612,0.044 0,0 z m 7.59375,0.1875 c -4.220456,2.5976 2.682234,0.7753 0,0 z m -8.5625,0.031 c -4.194697,3.4771 -16.980193,5.1272 -4.676143,3.4953 1.587141,-0.588 5.805749,-0.9055 4.676143,-3.4953 z m 4,0.2812 c -7.37964,2.6909 6.42049,1.2731 0,0 z m -15.0625,0.2188 c -14.025115,3.5937 5.936293,3.734 0,0 z m -2.875,0.062 c -4.340066,-0.6947 0.892596,1.7123 0,0 z m -17.96875,1.3125 c -1.07497,0.2229 0.758546,0.9169 0,0 z m 15.21875,0.25 c -3.22853,-0.2788 -0.488602,2.0036 0,0 z m -13.90625,0.625 c -2.502453,-0.7634 0.758997,1.7068 0,0 z m 0.9375,0.7187 c -3.849411,-0.8783 -3.974863,3.1469 0,0 z m -2.5,1.3438 c -10.824368,2.901 0.935633,7.6745 5.510414,2.0132 4.697698,-1.2965 7.516797,-3.1181 0.653468,-1.9978 -2.040802,0.1395 -4.166084,0.7577 -6.163882,-0.015 z M 11.5,1022.0791 c -1.092644,0.2391 -0.792132,0.1733 0,0 z m 14.90625,-0.8125 c -3.559292,-0.9931 0.475049,1.3204 0,0 z m -16.96875,0.1875 c 0.078822,1.0472 2.449439,-1.7051 0,0 z m 10.53125,0 c -1.787104,0.4007 0.695635,0.4443 0,0 z M 6.125,1022.6434 c -3.7402606,-0.7364 0.2149987,1.1711 0,0 z m 20.34375,0.031 c -2.185949,1.3082 2.074359,0.085 0,0 z M 4.375,1022.9559 c -0.097471,1.2329 1.0659986,-0.9175 0,0 z m 12.4375,0.2188 c 1.396338,-0.2449 -0.162071,1.7533 0,0 z m -0.9375,0.5 c 0.48352,2.8727 -3.034135,-0.9312 0,0 z m -2.03125,0.375 c 0.370002,1.0351 -1.604131,-0.018 0,0 z m 7.34375,0.3125 c -3.353534,2.5414 4.747252,-0.2512 0,0 z m 3.125,0.1562 c -0.57764,0.9715 1.314367,0.1256 0,0 z m -9.5625,0.375 c -4.7684969,2.2695 -7.0194192,-0.8076 0,0 z m -10.5,0.5 c -1.5999752,0.1295 1.2198248,0.3536 0,0 z m 2.625,0.1563 0.0625,0.031 z m 10.375,0.5937 c -0.368668,1.5997 1.625884,-0.5871 0,0 z m -13.78125,0.6563 c -1.8619839,1.0737 2.7350545,-0.295 0,0 z"
       id="path4817"
       inkscape:connector-curvature="0"
       sodipodi:nodetypes="ccccccccccccccccccccccccccccccccccccccccccccccccccccccccccccccccccccccccccccccccccccccccccccccccccccccccccccccccccccccccccccccccccccccccccccccccccccccccccccccccccccccccccccccccccccccccccccccccccccccccccccccccccccccccccccccccccccccccccccccccccccccccccccccccccccccccccccccccccccccccccccccccccccccccccccccccccccccccccccccccccccccccccccccccccccccccccccccccccccccccccccccccccccccccccccccccccccccccccccccccccccccccccccccccccccccccccccccccccccccccccccccccccccccccccccccccccccccccccccccccccccccccccccccccccccccccccccccccccccccccccccccccccccccccccccccccccccccccccccccccccccccccccccccccccccccccccccccccccccccccccccccccccccccccccccccccccccccccccccccccccccccccccccccccccccccccccccccccccccccccccccccccccccccccccccccccccccccccccccccccccccccccccccccccccccccccccccccccccccccccccccccccccccccccccccccccccccccccccccccccccccccccccccccccccccccccccccccccccccccccccccccccccccccccccccccccccccccccccccccccccccccccccc" />
  </g>
</svg>
