<?xml version="1.0" encoding="UTF-8" standalone="no"?>
<!-- Created with Inkscape (http://www.inkscape.org/) -->

<svg
   xmlns:dc="http://purl.org/dc/elements/1.1/"
   xmlns:cc="http://creativecommons.org/ns#"
   xmlns:rdf="http://www.w3.org/1999/02/22-rdf-syntax-ns#"
   xmlns:svg="http://www.w3.org/2000/svg"
   xmlns="http://www.w3.org/2000/svg"
   xmlns:sodipodi="http://sodipodi.sourceforge.net/DTD/sodipodi-0.dtd"
   xmlns:inkscape="http://www.inkscape.org/namespaces/inkscape"
   width="300"
   height="90"
   id="svg7478"
   version="1.1"
   inkscape:version="0.48.4 r9939"
   sodipodi:docname="brush_03S.svg">
  <defs
     id="defs7480" />
  <sodipodi:namedview
     id="base"
     pagecolor="#ffffff"
     bordercolor="#666666"
     borderopacity="1.0"
     inkscape:pageopacity="0.0"
     inkscape:pageshadow="2"
     inkscape:zoom="2.8"
     inkscape:cx="186.68813"
     inkscape:cy="98.701105"
     inkscape:document-units="px"
     inkscape:current-layer="layer1"
     showgrid="false"
     inkscape:window-width="1920"
     inkscape:window-height="1023"
     inkscape:window-x="0"
     inkscape:window-y="0"
     inkscape:window-maximized="1" />
  <metadata
     id="metadata7483">
    <rdf:RDF>
      <cc:Work
         rdf:about="">
        <dc:format>image/svg+xml</dc:format>
        <dc:type
           rdf:resource="http://purl.org/dc/dcmitype/StillImage" />
        <dc:title></dc:title>
      </cc:Work>
    </rdf:RDF>
  </metadata>
  <g
     inkscape:label="Layer 1"
     inkscape:groupmode="layer"
     id="layer1"
     transform="translate(0,-962.36218)">
    <path
       style="fill:#231f20;fill-opacity:1;fill-rule:nonzero;stroke:none"
       d="m 136.25,976.73718 c -17.98072,3.70167 -37.484968,0.34879 -54.312764,9.04564 -7.094311,0.62298 9.603831,0.30628 0.726572,1.9298 -3.529125,0.70551 0.436999,-0.0593 -2.981361,1.88579 13.304022,-0.58266 -21.169677,4.4624 -6.522121,3.65075 8.109517,-1.23774 -0.637341,2.47329 0.689344,3.4915 8.353925,0.74506 -13.298635,4.62804 -1.109725,1.75554 8.759316,-2.42943 7.399736,6.0181 0.217562,7.5132 -8.706523,5.3419 6.252887,0.7822 2.078654,6.2469 10.867895,3.5055 23.177147,-0.2871 34.432289,-1.1917 22.15267,-3.2735 44.61783,-1.6461 66.51274,2.5737 22.53136,4.0971 45.09195,8.8396 66.77832,16.2511 12.21674,4.9685 23.69713,12.1021 36.79055,14.6434 7.94352,-8.9741 9.30899,-23.159 4.12065,-33.8083 -14.06336,-10.90589 -32.35777,-13.04421 -48.59032,-19.23493 -15.42412,-4.8791 -31.26404,-8.91558 -47.3729,-10.2224 -15.16276,-4.34284 -31.14965,-1.91997 -46.63088,-3.8669 -0.62732,5.4798 -3.61865,2.4513 -4.82661,-0.66309 z m 1.375,1.6875 c 0.88412,-0.0402 0.7147,-0.0325 0,0 z m -63.40625,34.84372 c -0.356044,-0.661 -0.358355,0.8342 0,0 z m -0.3125,0.094 c -3.685759,-2.3267 -2.391859,4.2088 0,0 z m 0.375,-20.31252 -0.25,0 0.25,0 z m 8.4375,-7.65625 0.0625,-0.28125 -0.0625,0.28125 z m 0.0625,-0.28125 c 1.133424,0.64613 0.125089,-1.06061 0,0 z m 77.65625,-8.1875 c 3.0203,2.39982 5.88904,-0.62705 0,0 z m -21.90625,1.4375 0.12691,0.0643 -0.12691,-0.0643 z m 18.25,0.0625 c 3.0454,-0.27363 -1.37022,0.60264 0,0 z m -36.0625,0.15625 c 1.55052,0.30382 -1.16186,1.28671 0,0 z m 13.25,0.21875 c -6.94614,2.66506 -9.65816,-0.6944 0,0 z m 11.40625,0.0625 c 6.2142,-0.80566 3.13301,2.08293 0,0 z m -27.34375,0.34375 c 0.85729,1.60468 -4.33618,-0.59677 0,0 z m 34.1875,0.0937 c 1.45003,-0.8636 0.69437,1.12674 0,0 z m -27.09375,0.0625 c 0.0313,3.23053 -4.26944,-1.20398 0,0 z m 17.5625,0.0937 c 3.42397,-1.07411 -0.67636,1.75812 0,0 z m 6.34375,0.4375 c 1.11253,-0.78564 0.5399,0.93608 0,0 z m -30.75,0.3125 c 11.20364,-0.89691 -1.95613,8.76932 0,0 z m 18.84375,0.75 c 3.36416,-0.53659 14.01395,1.31609 4.50478,1.22185 -1.4568,-0.30376 -3.71918,0.55096 -4.50478,-1.22185 z m -3.65625,0.3125 c 4.79775,-0.0796 1.41624,1.65641 -1.07091,0.4164 l 1.07091,-0.4164 z m -36,0.28125 c 1.491411,-0.93498 -0.313991,1.65151 0,0 z m 30,0.1875 c -0.81713,1.48216 -5.07952,-0.39241 0,0 z m 16.25,0.21875 c 1.24725,0.32112 -1.19562,0.35646 0,0 z m -48.65625,0.625 c 5.79877,0.60205 -6.481598,1.37153 0,0 z m 64.65625,0 c 1.07723,0.38739 -1.22192,0.20522 0,0 z m -88,0.1875 c -2.427272,-1.63607 -0.776572,1.81927 0,0 z m 41.4375,0.6875 c -3.65141,1.2073 -3.64043,-0.17957 0,0 z m 21.15625,0.375 c 1.40084,1.43597 -2.25741,0.32424 0,0 z m -21.15625,0.25 c -0.41003,1.35544 -1.5149,-0.61703 0,0 z m 1.71875,0 c 1.28623,-1.24376 0.40423,1.00988 0,0 z m 21.9375,0 c 3.33073,0.30859 4.27419,0.39601 0,0 z m -73.34375,0.15625 c -2.46541,1.11578 0.894203,1.61932 0,0 z m 20.40625,0.0312 c -0.313638,1.89379 1.843163,-1.15526 0,0 z m 11.40625,0.875 c 3.525849,-1.49474 1.649491,1.37591 0,0 z m 27.8125,0.15625 c 2.03035,0.46489 -2.26366,0.3007 0,0 z m -64.3125,0.25 c -1.907879,3.84486 6.600529,-2.66343 0,0 z m 58.5625,0.75 c 3.23718,-1.20296 1.13632,2.27266 0,0 z m 3.875,0.25 c 1.44307,-0.12808 -1.23414,0.63579 0,0 z m -69.625,0.34375 c -3.203198,-1.2727 0.07645,1.66097 0,0 z m 21.59375,0.0625 c -2.276091,-0.82768 -1.165378,1.91942 0,0 z m -18.5,0.25 c -0.940764,0.65912 1.610532,-0.5108 0,0 z M 107,988.01843 c 0.47658,1.31108 -2.78964,-1.13763 0,0 z m -57,0.25 c -4.393871,0.7316 -2.030943,0.95942 0.52438,0.0285 L 50,988.26843 z m 14.9375,0 c -2.452805,-0.34046 0.240039,2.03403 0,0 z m 57.75,0 c 3.59572,-2.33761 -0.27641,1.60472 0,0 z M 45,988.42468 c -5.355029,-0.43399 0.883079,1.40796 0,0 z m 76.34375,0.0312 c -4.66156,3.10901 -13.00942,0.19734 -2.75837,0.30212 0.91946,-0.10071 1.83891,-0.20141 2.75837,-0.30212 z m -59.65625,0.59375 c -3.946354,0.46182 1.042374,1.15869 0,0 z m 14.78125,0.21875 c -2.305115,1.59862 3.549718,-0.6903 0,0 z m -34.03125,0.0312 c -1.074896,0.45241 -0.944108,0.39736 0,0 z m 42.71875,0.625 c 1.842178,0.17612 -1.479944,0.38978 0,0 z M 39.5,990.11218 c -0.691852,0.80109 -0.462691,0.53575 0,0 z m 19.03125,0 c -0.912369,1.43869 -3.969071,-0.34113 0,0 z m 21.375,0 c 1.404185,1.18655 -3.428374,-0.26964 0,0 z m -26.59375,0.84375 c -3.569928,-0.36033 0.707084,1.44009 0,0 z m -3.4375,0.8125 c -4.694231,-0.45496 0.466821,1.26793 0,0 z m -15.375,0.0625 c -4.151152,-0.4823 -1.149061,3.50944 0,0 z m 100.75,0 c 3.12677,0.27268 4.18967,0.36537 0,0 z m -50.65625,0.1875 0.908911,0.10492 -0.908911,-0.10492 z m -1.65625,0.1875 c 1.139988,-1.23965 0.685174,0.92361 0,0 z m 34.125,0 c 4.63581,-1.4464 1.93385,2.99149 0,0 z m 5.65625,0.0312 c 1.36381,0.95955 -3.15042,0.45467 0,0 z m -75.78125,0.21875 c -3.926551,-0.22174 -2.069813,2.28997 0,0 z m 7.90625,0.125 c -3.349891,-0.40822 1.661011,1.57988 0,0 z m 8.03125,0.0625 c -3.891404,2.04559 -2.320386,4.06078 -9.160883,4.42922 -13.714376,1.45965 11.985774,2.15792 9.160883,-4.42922 z m -10.34375,0.5 c -2.154592,1.98225 0.718906,3.80525 0,0 z m 32,0.1875 c -1.377579,1.05036 -5.237142,-0.32601 0,0 z m 53.875,0.0937 c 4.01496,1.88939 -6.93082,-0.93669 0,0 z m -88.75,0.15625 c -6.061086,0.73659 -1.458589,4.18386 0,0 z m 26,0.125 c -0.226407,0.96508 1.46363,-1.03262 0,0 z m -44.8125,0.21875 c -2.476287,-0.0472 -2.608861,3.56827 0,0 z m 122.8125,0.625 c 2.28832,-1.51739 0.2867,2.04356 0,0 z m -112.125,0.59375 c -1.846779,0.72436 0.432909,1.80778 0,0 z m 43.625,0 c -2.004461,3.21688 -3.977484,-1.97781 0,0 z m -29.5625,0.1875 c -5.559791,-0.88878 0.399442,1.52278 0,0 z m 11.5625,0.4375 c -0.987729,-0.44585 -0.07394,0.82601 0,0 z m 66.53125,0.21875 c 3.21063,-1.67705 -0.7544,1.63066 0,0 z m 1.25,0.0312 c 3.48156,-1.30369 12.08013,2.44476 3.86149,2.54344 -1.57177,-0.2828 -2.98826,-1.22206 -3.86149,-2.54344 z m -108.125,0.1875 c -2.503302,-0.25839 -0.05721,1.15291 0,0 z m 42.09375,0.0937 c -3.735939,-0.32393 -2.049307,1.53899 0.277257,0.37577 l -0.277257,-0.37577 z m -31.25,0.125 c -5.144546,1.73218 -0.07318,4.14682 0,0 z m 4.59375,0.1875 c -4.482893,-0.0194 0.527069,1.02901 0,0 z m 71.34375,0 c 2.11392,0.054 -1.94047,1.01825 0,0 z m 32.84375,0.15625 c 2.45689,2.04508 -4.85991,-0.46588 0,0 z m -65.375,0.0312 c 4.111554,-1.6293 -1.087083,1.45338 0,0 z m -55.78125,0.28125 c -1.963753,0.1792 0.474772,0.63958 0,0 z m 127.21875,0 c 1.01091,0.21061 0.58697,0.12229 0,0 z m -44.03125,0.15625 c -3.47693,2.49682 -3.1172,-0.53327 0,0 z m 45.5,0 c 2.83013,0.42151 3.02832,0.45103 0,0 z m -40.0625,0.59375 c 2.71698,0.65488 -2.30098,1.06014 0,0 z m -70.625,0.0312 c -3.15011,-1.33586 -0.652484,2.16412 0,0 z m 90,0 c 3.94386,-1.11147 -1.84009,1.67118 0,0 z m -50.5625,0.59375 c 4.906559,-1.17452 -0.772724,1.40622 0,0 z m -49.75,0.4375 c -9.475048,5.13087 3.880999,1.19207 0,0 z m 7.09375,0 c -3.178837,2.34597 -15.702467,7.56287 -13.543304,7.91757 3.168625,-2.3686 16.447941,-3.6096 13.543304,-7.91757 z m 65.15625,0.28125 c 0.97635,0.35655 0.59393,0.2169 0,0 z m 55.34375,0 c 2.85018,0.26995 3.01493,0.28555 0,0 z m -107.875,0.34375 c -3.558963,0.16355 1.718934,1.15077 0,0 z m 30.15625,0 c 1.92983,-0.22783 -0.521555,1.92327 0,0 z m -32.78125,0.4375 c -4.089002,1.03727 2.594816,1.01987 0,0 z m -13.96875,0.59377 c -1.189654,-0.55354 -0.258467,0.9245 0,0 z m 56.03125,0 c 3.104375,0.017 -1.962153,1.0297 0,0 z m 15.84375,0.25 c 1.33351,-0.3017 -0.82426,0.6642 0,0 z m -49.15625,0.031 c -1.034839,2.5453 6.17893,-2.4166 0,0 z m -5.5625,0.1563 c -3.654516,2.4369 -16.876947,4.9613 -5.314078,3.212 2.109472,4.1262 -10.302243,6.1583 -1.585901,7.1086 -11.660646,5.2191 19.938428,2.3671 10.866877,-2.7932 -11.519298,-1.5598 5.759594,-5.8169 -3.966898,-7.5274 z m 11.59375,0 c -1.511245,0.4511 -0.166908,2.1844 0,0 z m 44.90625,0.2187 c 0.10694,0.937 -1.55454,-0.6575 0,0 z m -39.625,0.2188 c -1.295977,0.5072 1.304262,-0.034 0,0 z m 112.09375,0 1.83336,0.4074 -1.83336,-0.4074 z m -123.125,0.625 c -4.270402,-1.3714 -3.521336,4.7057 0,0 z m -17,0.2187 c -2.398292,0.8812 2.858171,0.014 0,0 z m 48.96875,0.031 c 2.564169,-0.2658 -1.985225,0.6158 0,0 z m -63.125,0.062 -0.790014,0.5079 0.790014,-0.5079 z m 83.125,0.094 c 0.76925,1.055 -3.65097,-0.03 0,0 z m 72.5,0.031 c 2.21483,-0.5111 0.8198,1.5368 0,0 z m -73.9375,0.2187 c 0.73716,0.8251 -1.63669,-0.2686 0,0 z m -71.21875,0.3125 c -4.044206,-0.8106 0.463227,2.3557 0,0 z m 13.78125,0.9375 c 0.152083,3.435 -3.768731,-0.01 0,0 z m -16.09375,0.1875 c -1.455137,0.8055 -2.673316,1.4799 -0.496933,0.2751 l 0.496933,-0.2751 z m 14.21875,0.25 c 0.821994,1.1875 -1.230221,0.2171 0,0 z m -1.46875,0.3438 c 1.528118,2.5388 -3.402886,0.9001 0,0 z m 80.78125,0.6562 c -0.21465,2.935 -4.89272,-1.9083 0,0 z m -97.1875,0.8438 c -4.382487,0.3561 -3.966673,3.9194 0,0 z m 9.65625,0.125 c -3.960521,2.3109 2.496146,2.612 0,0 z m 24.3125,0.125 c -1.375218,0.8746 1.114426,1.6336 0,0 z m -30.4375,0.1875 c -2.528588,2.8944 -17.29512,5.0743 -13.1581,7.3843 5.119244,-0.5279 -10.519951,5.2722 -1.0763,2.6785 -3.212135,1.3369 -5.097755,2.717 -0.201976,2.5896 -2.969535,3.8412 -13.1872091,9.0481 -2.412984,4.9862 8.075848,-4.6392 9.779717,-10.6783 18.078087,-16.0248 -7.654143,1.4312 3.292404,-1.8277 -1.228727,-1.6138 z m 91.53125,0 c 6.04171,0.4349 -0.98034,3.7033 0,0 z m -59.9375,0.1562 c -1.572425,-0.6364 0.240979,1.4141 0,0 z m 64.53125,0.25 c 1.26612,0.4446 -1.52415,0.126 0,0 z m 11.3125,0.3438 c 2.02563,0.8986 -3.27776,0.9155 0,0 z m -33.71875,0.031 c 1.811,0.3191 -1.95762,0.6121 0,0 z m 34.40625,0.031 c 1.55727,-0.8607 0.96524,1.7889 0,0 z m -4.53125,0.031 c 2.42034,1.9127 -6.48556,-0.7578 0,0 z m -4.75,0.1875 c -0.0127,1.6201 -1.56248,-0.7117 0,0 z m -69.4375,0.1875 c -9.838483,4.1081 7.255909,2.6635 0,0 z m -12.8125,0.031 c 1.248585,0.8582 -1.738553,0.4532 0,0 z m -26,0.4062 c -4.65555,-0.7017 -0.114192,2.8145 0,0 z m 24.3125,0 c 2.14312,-0.5007 -1.355984,1.3368 0,0 z m 8.84375,0 -0.939076,0.221 0.939076,-0.221 z m 93.21875,0.031 c 0.99644,0.6327 -1.19604,0.4164 0,0 z m -101.96875,1.1875 c 1.762549,0.081 -1.822879,0.5224 0,0 z m -23.1875,0.094 -0.910815,0.3057 0.910815,-0.3057 z m 4.09375,0.7813 c -0.928762,1.8011 -1.613779,0.4245 0,0 z m 10.8125,0.25 c -2.060414,0.5359 1.006632,1.4596 0,0 z m 38.6875,0.3437 c 0.454378,2.4752 -3.170292,-0.2338 0,0 z m 6.4375,0 c 2.585842,0.6119 -4.158751,0.6307 -1.911936,0.2227 l 1.911936,-0.2227 z m -1.78125,0.625 c -1.02917,0.1407 -0.623489,0.085 0,0 z m -16.0625,0.25 c -3.682916,1.1656 2.211465,0.9607 0,0 z m -4.34375,0.7188 c -8.669933,-0.2134 -5.296162,7.68 0.36817,2.2078 l 0.03614,-0.985 -0.404313,-1.2228 z m 3.90625,0.5 c -1.319505,1.6864 2.548885,0.07 0,0 z m -16.71875,1.0625 c -4.825684,5.4256 5.638351,2.6532 0,0 z m 21.65625,0.25 c -1.379218,-0.3337 0.08638,1.4949 0,0 z m -4.71875,0.3437 c -1.52147,0.9331 1.783963,-0.153 0,0 z m -44.5625,0.1563 c 0.486845,1.3467 -1.780634,-0.1078 0,0 z m 38.46875,0.094 c 3.879179,1.4654 -6.844466,-0.5846 0,0 z m -15.53125,0.4688 c -1.568989,-0.2236 -0.240442,1.3912 0,0 z m -23.625,0.2187 -0.25,0.125 0.25,-0.125 z m 8.4375,0.375 c -1.603774,-0.5289 0.349006,1.2384 0,0 z m 9.21875,0.4063 c -1.157924,0.4769 1.092349,0.95 0,0 z m -10.875,0.2187 c -1.625953,-0.3834 -0.646784,1.826 0,0 z m -16.125,1.6563 c -2.833703,-0.1538 -1.536165,1.7432 0,0 z m 33.0625,0.4062 c -1.8896,-0.107 0.700351,1.331 0,0 z m -36.40625,0.625 c -2.0143102,-1.1265 -2.4004635,2.6051 0,0 z m 20.8125,0 c -2.930941,0.6507 -0.617054,1.5492 0,0 z m -5.8125,0.4688 c -7.535881,1.3708 2.156627,2.5803 0,0 z m -11.6875,0.3437 -2.05936,0.6908 2.05936,-0.6908 z m 2.25,0.062 c 0.275336,0.7761 0.758073,-1.0009 0,0 z m 4.15625,1.2188 c 0.673375,1.7949 -4.226731,-0.8657 0,0 z m -11.8125,5.5 c -3.5202751,-0.5472 -1.4673452,2.1022 0,0 z m 11.90625,0.4062 c -3.093938,-0.3148 1.196855,1.1277 0,0 z"
       id="path4501"
       inkscape:connector-curvature="0" />
  </g>
</svg>
