<?xml version="1.0" encoding="UTF-8" standalone="no"?>
<!-- Created with Inkscape (http://www.inkscape.org/) -->

<svg
   xmlns:dc="http://purl.org/dc/elements/1.1/"
   xmlns:cc="http://creativecommons.org/ns#"
   xmlns:rdf="http://www.w3.org/1999/02/22-rdf-syntax-ns#"
   xmlns:svg="http://www.w3.org/2000/svg"
   xmlns="http://www.w3.org/2000/svg"
   xmlns:sodipodi="http://sodipodi.sourceforge.net/DTD/sodipodi-0.dtd"
   xmlns:inkscape="http://www.inkscape.org/namespaces/inkscape"
   width="744.09448819"
   height="1052.3622047"
   id="svg3023"
   version="1.1"
   inkscape:version="0.48.3.1 r9886"
   sodipodi:docname="genesis-arrows.svg">
  <defs
     id="defs3025">
    <filter
       color-interpolation-filters="sRGB"
       inkscape:collect="always"
       id="filter4431">
      <feGaussianBlur
         inkscape:collect="always"
         stdDeviation="0.88830684"
         id="feGaussianBlur4433" />
    </filter>
  </defs>
  <sodipodi:namedview
     id="base"
     pagecolor="#ffffff"
     bordercolor="#666666"
     borderopacity="1.0"
     inkscape:pageopacity="0.0"
     inkscape:pageshadow="2"
     inkscape:zoom="0.35"
     inkscape:cx="375"
     inkscape:cy="748.57143"
     inkscape:document-units="px"
     inkscape:current-layer="layer1"
     showgrid="false"
     inkscape:window-width="471"
     inkscape:window-height="457"
     inkscape:window-x="602"
     inkscape:window-y="270"
     inkscape:window-maximized="0" />
  <metadata
     id="metadata3028">
    <rdf:RDF>
      <cc:Work
         rdf:about="">
        <dc:format>image/svg+xml</dc:format>
        <dc:type
           rdf:resource="http://purl.org/dc/dcmitype/StillImage" />
        <dc:title></dc:title>
      </cc:Work>
    </rdf:RDF>
  </metadata>
  <g
     inkscape:label="Layer 1"
     inkscape:groupmode="layer"
     id="layer1">
    <path
       sodipodi:type="arc"
       style="fill:#999999;stroke:#000000;stroke-width:1;stroke-miterlimit:4;stroke-opacity:1;stroke-dasharray:none"
       id="path2993"
       sodipodi:cx="356.58386"
       sodipodi:cy="405.86456"
       sodipodi:rx="18.182745"
       sodipodi:ry="18.182745"
       d="m 374.76661,405.86456 a 18.182745,18.182745 0 1 1 -36.36549,0 18.182745,18.182745 0 1 1 36.36549,0 z"
       transform="translate(-328.01244,-379.21666)" />
    <path
       sodipodi:type="spiral"
       style="fill:none;stroke:#000000;stroke-width:2.69538164;stroke-linecap:round;stroke-linejoin:round;stroke-miterlimit:4;stroke-opacity:1;stroke-dasharray:none;stroke-dashoffset:0;marker-start:none;filter:url(#filter4431)"
       id="path3787"
       sodipodi:cx="286.88333"
       sodipodi:cy="328.08279"
       sodipodi:expansion="1"
       sodipodi:revolution="3"
       sodipodi:radius="15.016997"
       sodipodi:argument="-18.064157"
       sodipodi:t0="0"
       d="m 286.88333,328.08279 c 0.5324,0.53241 -0.455,0.98034 -0.88488,0.88489 -1.16497,-0.25866 -1.35225,-1.75084 -0.88489,-2.65466 0.836,-1.61671 3.0069,-1.80611 4.42443,-0.88488 2.08028,1.35194 2.27344,4.27999 0.88488,6.1942 -1.85073,2.55133 -5.55913,2.74649 -7.96397,0.88488 -3.02623,-2.34265 -3.22251,-6.84116 -0.88488,-9.73374 2.83119,-3.50329 8.12481,-3.70025 11.50351,-0.88488 3.98167,3.31782 4.17907,9.40948 0.88488,13.27328 -3.80327,4.46091 -10.69481,4.6586 -15.04305,0.88488 -4.94073,-4.28795 -5.13864,-11.98063 -0.88488,-16.81282 4.77208,-5.42098 13.26679,-5.61904 18.58259,-0.88488 5.90154,5.25582 6.09972,14.55321 0.88488,20.35236"
       transform="matrix(0.81621093,0,0,0.81621093,-206.84853,-240.1028)" />
  </g>
</svg>
